# Blender 4.4.1
# www.blender.org
mtllib ladder.mtl
o Cube
v 0.400000 0.500000 0.050000
v 0.400000 -0.500000 0.050000
v 0.400000 0.500000 -0.050000
v 0.400000 -0.500000 -0.050000
v 0.500000 0.500000 0.050000
v 0.500000 -0.500000 0.050000
v 0.500000 0.500000 -0.050000
v 0.500000 -0.500000 -0.050000
v -0.500000 0.250000 0.050000
v 0.500000 0.250000 0.050000
v -0.500000 0.250000 -0.050000
v 0.500000 0.250000 -0.050000
v -0.500000 0.350000 0.050000
v 0.500000 0.350000 0.050000
v -0.500000 0.350000 -0.050000
v 0.500000 0.350000 -0.050000
v -0.500000 0.500000 0.050000
v -0.500000 -0.500000 0.050000
v -0.500000 0.500000 -0.050000
v -0.500000 -0.500000 -0.050000
v -0.400000 0.500000 0.050000
v -0.400000 -0.500000 0.050000
v -0.400000 0.500000 -0.050000
v -0.400000 -0.500000 -0.050000
v -0.500000 -0.350000 0.050000
v 0.500000 -0.350000 0.050000
v -0.500000 -0.350000 -0.050000
v 0.500000 -0.350000 -0.050000
v -0.500000 -0.250000 0.050000
v 0.500000 -0.250000 0.050000
v -0.500000 -0.250000 -0.050000
v 0.500000 -0.250000 -0.050000
v -0.500000 -0.050000 0.050000
v 0.500000 -0.050000 0.050000
v -0.500000 -0.050000 -0.050000
v 0.500000 -0.050000 -0.050000
v -0.500000 0.050000 0.050000
v 0.500000 0.050000 0.050000
v -0.500000 0.050000 -0.050000
v 0.500000 0.050000 -0.050000
vn -0.0000 1.0000 -0.0000
vn -0.0000 -0.0000 -1.0000
vn 1.0000 -0.0000 -0.0000
vn -0.0000 -1.0000 -0.0000
vn -1.0000 -0.0000 -0.0000
vn -0.0000 -0.0000 1.0000
vt 0.875000 0.500000
vt 0.625000 0.750000
vt 0.625000 0.500000
vt 0.375000 1.000000
vt 0.375000 0.750000
vt 0.625000 0.000000
vt 0.375000 0.250000
vt 0.375000 0.000000
vt 0.375000 0.500000
vt 0.125000 0.750000
vt 0.125000 0.500000
vt 0.625000 0.250000
vt 0.875000 0.750000
vt 0.625000 1.000000
s 0
usemtl マテリアル.001
f 5/1/1 3/2/1 1/3/1
f 3/2/2 8/4/2 4/5/2
f 7/6/3 6/7/3 8/8/3
f 2/9/4 8/10/4 6/11/4
f 1/3/5 4/5/5 2/9/5
f 5/12/6 2/9/6 6/7/6
f 13/1/5 11/2/5 9/3/5
f 11/2/2 16/4/2 12/5/2
f 15/6/1 14/7/1 16/8/1
f 10/9/3 16/10/3 14/11/3
f 9/3/4 12/5/4 10/9/4
f 13/12/6 10/9/6 14/7/6
f 21/1/1 19/2/1 17/3/1
f 19/2/2 24/4/2 20/5/2
f 23/6/3 22/7/3 24/8/3
f 18/9/4 24/10/4 22/11/4
f 17/3/5 20/5/5 18/9/5
f 21/12/6 18/9/6 22/7/6
f 29/1/5 27/2/5 25/3/5
f 27/2/2 32/4/2 28/5/2
f 31/6/1 30/7/1 32/8/1
f 26/9/3 32/10/3 30/11/3
f 25/3/4 28/5/4 26/9/4
f 29/12/6 26/9/6 30/7/6
f 37/1/5 35/2/5 33/3/5
f 35/2/2 40/4/2 36/5/2
f 39/6/1 38/7/1 40/8/1
f 34/9/3 40/10/3 38/11/3
f 33/3/4 36/5/4 34/9/4
f 37/12/6 34/9/6 38/7/6
f 5/1/1 7/13/1 3/2/1
f 3/2/2 7/14/2 8/4/2
f 7/6/3 5/12/3 6/7/3
f 2/9/4 4/5/4 8/10/4
f 1/3/5 3/2/5 4/5/5
f 5/12/6 1/3/6 2/9/6
f 13/1/5 15/13/5 11/2/5
f 11/2/2 15/14/2 16/4/2
f 15/6/1 13/12/1 14/7/1
f 10/9/3 12/5/3 16/10/3
f 9/3/4 11/2/4 12/5/4
f 13/12/6 9/3/6 10/9/6
f 21/1/1 23/13/1 19/2/1
f 19/2/2 23/14/2 24/4/2
f 23/6/3 21/12/3 22/7/3
f 18/9/4 20/5/4 24/10/4
f 17/3/5 19/2/5 20/5/5
f 21/12/6 17/3/6 18/9/6
f 29/1/5 31/13/5 27/2/5
f 27/2/2 31/14/2 32/4/2
f 31/6/1 29/12/1 30/7/1
f 26/9/3 28/5/3 32/10/3
f 25/3/4 27/2/4 28/5/4
f 29/12/6 25/3/6 26/9/6
f 37/1/5 39/13/5 35/2/5
f 35/2/2 39/14/2 40/4/2
f 39/6/1 37/12/1 38/7/1
f 34/9/3 36/5/3 40/10/3
f 33/3/4 35/2/4 36/5/4
f 37/12/6 33/3/6 34/9/6
