# Blender 4.4.1
# www.blender.org
mtllib goal.mtl
o 立方体
v -0.050000 -0.500000 0.050000
v -0.050000 0.500000 0.050000
v -0.050000 -0.500000 -0.050000
v -0.050000 0.500000 -0.050000
v 0.050000 -0.500000 0.050000
v 0.050000 0.500000 0.050000
v 0.050000 -0.500000 -0.050000
v 0.050000 0.500000 -0.050000
v 0.000000 0.349992 0.350419
v -0.050000 0.199992 0.050419
v -0.050000 0.499992 0.050419
v 0.050000 0.199992 0.050419
v 0.050000 0.499992 0.050419
vn -1.0000 -0.0000 -0.0000
vn -0.0000 -0.0000 -1.0000
vn 1.0000 -0.0000 -0.0000
vn -0.0000 -0.0000 1.0000
vn -0.0000 -1.0000 -0.0000
vn -0.0000 1.0000 -0.0000
vn -0.9864 -0.0000 0.1644
vn 0.9864 -0.0000 0.1644
vn -0.0000 -0.8944 0.4472
vn -0.0000 0.8944 0.4472
vt 0.183601 0.001815
vt 0.124291 0.306077
vt 0.001815 0.124291
vt 0.306077 0.183601
vt 0.246768 0.487864
vt 0.428554 0.365387
vt 0.369245 0.669650
vt 0.551031 0.547173
vt 0.491721 0.851436
vt 0.187458 0.792126
vt 0.064982 0.610340
vt 0.610340 0.242910
vt 0.673507 0.728959
vt 0.732817 0.424697
vt 0.660787 0.004788
vt 0.756146 0.146326
vt 0.614609 0.241685
vt 0.709968 0.383223
vt 0.851505 0.287863
vt 0.805327 0.524760
vt 0.894242 0.894242
vt 0.514347 0.894242
vt 0.894242 0.514347
vt 0.002880 0.998185
vt 0.002880 0.618290
vt 0.382775 0.998185
s 0
usemtl マテリアル.001
f 2/1/1 3/2/1 1/3/1
f 4/4/2 7/5/2 3/2/2
f 8/6/3 5/7/3 7/5/3
f 6/8/4 1/9/4 5/7/4
f 7/5/5 1/10/5 3/11/5
f 4/12/6 6/8/6 8/6/6
f 2/1/1 4/4/1 3/2/1
f 4/4/2 8/6/2 7/5/2
f 8/6/3 6/8/3 5/7/3
f 6/8/4 2/13/4 1/9/4
f 7/5/5 5/7/5 1/10/5
f 4/12/6 2/14/6 6/8/6
usemtl 
f 9/15/7 11/16/7 10/17/7
f 11/16/2 12/18/2 10/17/2
f 12/18/8 13/19/8 9/20/8
f 10/21/9 12/22/9 9/23/9
f 13/24/10 11/25/10 9/26/10
f 11/16/2 13/19/2 12/18/2
