# Blender 4.4.1
# www.blender.org
mtllib circle.mtl
o トーラス
v -0.500000 0.000000 0.000000
v -0.486603 -0.000000 0.025000
v -0.450000 -0.000000 0.043301
v -0.400000 -0.000000 0.050000
v -0.350000 -0.000000 0.043301
v -0.313397 -0.000000 0.025000
v -0.300000 -0.000000 0.000000
v -0.313397 0.000000 -0.025000
v -0.350000 0.000000 -0.043301
v -0.400000 0.000000 -0.050000
v -0.450000 0.000000 -0.043301
v -0.486603 0.000000 -0.025000
v -0.495722 -0.065263 -0.000000
v -0.482440 -0.063514 0.025000
v -0.446150 -0.058737 0.043301
v -0.396578 -0.052210 0.050000
v -0.347006 -0.045684 0.043301
v -0.310716 -0.040907 0.025000
v -0.297433 -0.039158 -0.000000
v -0.310716 -0.040907 -0.025000
v -0.347006 -0.045684 -0.043301
v -0.396578 -0.052210 -0.050000
v -0.446150 -0.058737 -0.043301
v -0.482440 -0.063514 -0.025000
v -0.482963 -0.129409 -0.000000
v -0.470022 -0.125942 0.025000
v -0.434667 -0.116469 0.043301
v -0.386370 -0.103528 0.050000
v -0.338074 -0.090587 0.043301
v -0.302719 -0.081113 0.025000
v -0.289778 -0.077646 -0.000000
v -0.302719 -0.081113 -0.025000
v -0.338074 -0.090587 -0.043301
v -0.386370 -0.103528 -0.050000
v -0.434667 -0.116469 -0.043301
v -0.470022 -0.125942 -0.025000
v -0.461940 -0.191342 -0.000000
v -0.449562 -0.186215 0.025000
v -0.415746 -0.172208 0.043301
v -0.369552 -0.153073 0.050000
v -0.323358 -0.133939 0.043301
v -0.289542 -0.119932 0.025000
v -0.277164 -0.114805 -0.000000
v -0.289542 -0.119932 -0.025000
v -0.323358 -0.133939 -0.043301
v -0.369552 -0.153073 -0.050000
v -0.415746 -0.172208 -0.043301
v -0.449562 -0.186215 -0.025000
v -0.433013 -0.250000 -0.000000
v -0.421410 -0.243301 0.025000
v -0.389711 -0.225000 0.043301
v -0.346410 -0.200000 0.050000
v -0.303109 -0.175000 0.043301
v -0.271410 -0.156699 0.025000
v -0.259808 -0.150000 -0.000000
v -0.271410 -0.156699 -0.025000
v -0.303109 -0.175000 -0.043301
v -0.346410 -0.200000 -0.050000
v -0.389711 -0.225000 -0.043301
v -0.421410 -0.243301 -0.025000
v -0.396677 -0.304381 -0.000000
v -0.386048 -0.296225 0.025000
v -0.357009 -0.273943 0.043301
v -0.317341 -0.243505 0.050000
v -0.277674 -0.213066 0.043301
v -0.248635 -0.190784 0.025000
v -0.238006 -0.182628 -0.000000
v -0.248635 -0.190784 -0.025000
v -0.277674 -0.213066 -0.043301
v -0.317341 -0.243505 -0.050000
v -0.357009 -0.273943 -0.043301
v -0.386048 -0.296225 -0.025000
v -0.353553 -0.353553 -0.000000
v -0.344080 -0.344080 0.025000
v -0.318198 -0.318198 0.043301
v -0.282843 -0.282843 0.050000
v -0.247487 -0.247487 0.043301
v -0.221605 -0.221605 0.025000
v -0.212132 -0.212132 -0.000000
v -0.221605 -0.221605 -0.025000
v -0.247487 -0.247487 -0.043301
v -0.282843 -0.282843 -0.050000
v -0.318198 -0.318198 -0.043301
v -0.344080 -0.344080 -0.025000
v -0.304381 -0.396677 -0.000000
v -0.296225 -0.386048 0.025000
v -0.273943 -0.357009 0.043301
v -0.243505 -0.317341 0.050000
v -0.213067 -0.277674 0.043301
v -0.190784 -0.248635 0.025000
v -0.182628 -0.238006 -0.000000
v -0.190784 -0.248635 -0.025000
v -0.213067 -0.277674 -0.043301
v -0.243505 -0.317341 -0.050000
v -0.273943 -0.357009 -0.043301
v -0.296225 -0.386048 -0.025000
v -0.250000 -0.433013 -0.000000
v -0.243301 -0.421410 0.025000
v -0.225000 -0.389711 0.043301
v -0.200000 -0.346410 0.050000
v -0.175000 -0.303109 0.043301
v -0.156699 -0.271410 0.025000
v -0.150000 -0.259808 -0.000000
v -0.156699 -0.271410 -0.025000
v -0.175000 -0.303109 -0.043301
v -0.200000 -0.346410 -0.050000
v -0.225000 -0.389711 -0.043301
v -0.243301 -0.421410 -0.025000
v -0.191342 -0.461940 -0.000000
v -0.186215 -0.449562 0.025000
v -0.172208 -0.415746 0.043301
v -0.153073 -0.369552 0.050000
v -0.133939 -0.323358 0.043301
v -0.119932 -0.289541 0.025000
v -0.114805 -0.277164 -0.000000
v -0.119932 -0.289541 -0.025000
v -0.133939 -0.323358 -0.043301
v -0.153073 -0.369552 -0.050000
v -0.172208 -0.415746 -0.043301
v -0.186215 -0.449562 -0.025000
v -0.129410 -0.482963 -0.000000
v -0.125942 -0.470022 0.025000
v -0.116469 -0.434667 0.043301
v -0.103528 -0.386370 0.050000
v -0.090587 -0.338074 0.043301
v -0.081113 -0.302719 0.025000
v -0.077646 -0.289778 -0.000000
v -0.081113 -0.302719 -0.025000
v -0.090587 -0.338074 -0.043301
v -0.103528 -0.386370 -0.050000
v -0.116469 -0.434667 -0.043301
v -0.125942 -0.470022 -0.025000
v -0.065263 -0.495722 -0.000000
v -0.063514 -0.482440 0.025000
v -0.058737 -0.446150 0.043301
v -0.052210 -0.396578 0.050000
v -0.045684 -0.347006 0.043301
v -0.040907 -0.310716 0.025000
v -0.039158 -0.297433 -0.000000
v -0.040907 -0.310716 -0.025000
v -0.045684 -0.347006 -0.043301
v -0.052210 -0.396578 -0.050000
v -0.058737 -0.446150 -0.043301
v -0.063514 -0.482440 -0.025000
v -0.000000 -0.500000 -0.000000
v -0.000000 -0.486603 0.025000
v -0.000000 -0.450000 0.043301
v -0.000000 -0.400000 0.050000
v -0.000000 -0.350000 0.043301
v -0.000000 -0.313397 0.025000
v -0.000000 -0.300000 -0.000000
v -0.000000 -0.313397 -0.025000
v -0.000000 -0.350000 -0.043301
v -0.000000 -0.400000 -0.050000
v -0.000000 -0.450000 -0.043301
v -0.000000 -0.486603 -0.025000
v 0.065263 -0.495722 -0.000000
v 0.063514 -0.482440 0.025000
v 0.058737 -0.446150 0.043301
v 0.052211 -0.396578 0.050000
v 0.045684 -0.347006 0.043301
v 0.040907 -0.310716 0.025000
v 0.039158 -0.297433 -0.000000
v 0.040907 -0.310716 -0.025000
v 0.045684 -0.347006 -0.043301
v 0.052211 -0.396578 -0.050000
v 0.058737 -0.446150 -0.043301
v 0.063514 -0.482440 -0.025000
v 0.129409 -0.482963 -0.000000
v 0.125942 -0.470022 0.025000
v 0.116469 -0.434667 0.043301
v 0.103528 -0.386370 0.050000
v 0.090587 -0.338074 0.043301
v 0.081113 -0.302719 0.025000
v 0.077646 -0.289778 -0.000000
v 0.081113 -0.302719 -0.025000
v 0.090587 -0.338074 -0.043301
v 0.103528 -0.386370 -0.050000
v 0.116469 -0.434667 -0.043301
v 0.125942 -0.470022 -0.025000
v 0.191342 -0.461940 -0.000000
v 0.186215 -0.449562 0.025000
v 0.172208 -0.415746 0.043301
v 0.153073 -0.369552 0.050000
v 0.133939 -0.323358 0.043301
v 0.119932 -0.289541 0.025000
v 0.114805 -0.277164 -0.000000
v 0.119932 -0.289541 -0.025000
v 0.133939 -0.323358 -0.043301
v 0.153073 -0.369552 -0.050000
v 0.172208 -0.415746 -0.043301
v 0.186215 -0.449562 -0.025000
v 0.250000 -0.433013 -0.000000
v 0.243301 -0.421410 0.025000
v 0.225000 -0.389711 0.043301
v 0.200000 -0.346410 0.050000
v 0.175000 -0.303109 0.043301
v 0.156699 -0.271410 0.025000
v 0.150000 -0.259808 -0.000000
v 0.156699 -0.271410 -0.025000
v 0.175000 -0.303109 -0.043301
v 0.200000 -0.346410 -0.050000
v 0.225000 -0.389711 -0.043301
v 0.243301 -0.421410 -0.025000
v 0.304381 -0.396677 -0.000000
v 0.296225 -0.386048 0.025000
v 0.273943 -0.357009 0.043301
v 0.243505 -0.317341 0.050000
v 0.213067 -0.277674 0.043301
v 0.190784 -0.248635 0.025000
v 0.182628 -0.238006 -0.000000
v 0.190784 -0.248635 -0.025000
v 0.213067 -0.277674 -0.043301
v 0.243505 -0.317341 -0.050000
v 0.273943 -0.357009 -0.043301
v 0.296225 -0.386048 -0.025000
v 0.353554 -0.353553 -0.000000
v 0.344080 -0.344080 0.025000
v 0.318198 -0.318198 0.043301
v 0.282843 -0.282843 0.050000
v 0.247487 -0.247487 0.043301
v 0.221606 -0.221605 0.025000
v 0.212132 -0.212132 -0.000000
v 0.221606 -0.221605 -0.025000
v 0.247487 -0.247487 -0.043301
v 0.282843 -0.282843 -0.050000
v 0.318198 -0.318198 -0.043301
v 0.344080 -0.344080 -0.025000
v 0.396677 -0.304381 -0.000000
v 0.386048 -0.296225 0.025000
v 0.357009 -0.273943 0.043301
v 0.317341 -0.243505 0.050000
v 0.277674 -0.213067 0.043301
v 0.248635 -0.190784 0.025000
v 0.238006 -0.182628 -0.000000
v 0.248635 -0.190784 -0.025000
v 0.277674 -0.213067 -0.043301
v 0.317341 -0.243505 -0.050000
v 0.357009 -0.273943 -0.043301
v 0.386048 -0.296225 -0.025000
v 0.433013 -0.250000 -0.000000
v 0.421410 -0.243301 0.025000
v 0.389711 -0.225000 0.043301
v 0.346410 -0.200000 0.050000
v 0.303109 -0.175000 0.043301
v 0.271410 -0.156699 0.025000
v 0.259808 -0.150000 -0.000000
v 0.271410 -0.156699 -0.025000
v 0.303109 -0.175000 -0.043301
v 0.346410 -0.200000 -0.050000
v 0.389711 -0.225000 -0.043301
v 0.421410 -0.243301 -0.025000
v 0.461940 -0.191342 -0.000000
v 0.449562 -0.186215 0.025000
v 0.415746 -0.172208 0.043301
v 0.369552 -0.153073 0.050000
v 0.323358 -0.133939 0.043301
v 0.289541 -0.119932 0.025000
v 0.277164 -0.114805 -0.000000
v 0.289541 -0.119932 -0.025000
v 0.323358 -0.133939 -0.043301
v 0.369552 -0.153073 -0.050000
v 0.415746 -0.172208 -0.043301
v 0.449562 -0.186215 -0.025000
v 0.482963 -0.129409 -0.000000
v 0.470022 -0.125942 0.025000
v 0.434667 -0.116469 0.043301
v 0.386370 -0.103528 0.050000
v 0.338074 -0.090587 0.043301
v 0.302719 -0.081113 0.025000
v 0.289778 -0.077646 -0.000000
v 0.302719 -0.081113 -0.025000
v 0.338074 -0.090587 -0.043301
v 0.386370 -0.103528 -0.050000
v 0.434667 -0.116469 -0.043301
v 0.470022 -0.125942 -0.025000
v 0.495722 -0.065263 -0.000000
v 0.482440 -0.063514 0.025000
v 0.446150 -0.058737 0.043301
v 0.396578 -0.052211 0.050000
v 0.347006 -0.045684 0.043301
v 0.310716 -0.040907 0.025000
v 0.297433 -0.039158 -0.000000
v 0.310716 -0.040907 -0.025000
v 0.347006 -0.045684 -0.043301
v 0.396578 -0.052211 -0.050000
v 0.446150 -0.058737 -0.043301
v 0.482440 -0.063514 -0.025000
v 0.500000 -0.000000 -0.000000
v 0.486603 -0.000000 0.025000
v 0.450000 -0.000000 0.043301
v 0.400000 -0.000000 0.050000
v 0.350000 -0.000000 0.043301
v 0.313397 -0.000000 0.025000
v 0.300000 -0.000000 -0.000000
v 0.313397 -0.000000 -0.025000
v 0.350000 -0.000000 -0.043301
v 0.400000 -0.000000 -0.050000
v 0.450000 -0.000000 -0.043301
v 0.486603 -0.000000 -0.025000
v 0.495722 0.065263 0.000000
v 0.482440 0.063514 0.025000
v 0.446150 0.058737 0.043301
v 0.396578 0.052211 0.050000
v 0.347006 0.045684 0.043301
v 0.310716 0.040907 0.025000
v 0.297433 0.039158 0.000000
v 0.310716 0.040907 -0.025000
v 0.347006 0.045684 -0.043301
v 0.396578 0.052211 -0.050000
v 0.446150 0.058737 -0.043301
v 0.482440 0.063514 -0.025000
v 0.482963 0.129409 0.000000
v 0.470022 0.125942 0.025000
v 0.434667 0.116469 0.043301
v 0.386370 0.103528 0.050000
v 0.338074 0.090587 0.043301
v 0.302719 0.081113 0.025000
v 0.289778 0.077646 0.000000
v 0.302719 0.081113 -0.025000
v 0.338074 0.090587 -0.043301
v 0.386370 0.103528 -0.050000
v 0.434667 0.116469 -0.043301
v 0.470022 0.125942 -0.025000
v 0.461940 0.191342 0.000000
v 0.449562 0.186215 0.025000
v 0.415746 0.172207 0.043301
v 0.369552 0.153073 0.050000
v 0.323358 0.133939 0.043301
v 0.289542 0.119932 0.025000
v 0.277164 0.114805 0.000000
v 0.289542 0.119932 -0.025000
v 0.323358 0.133939 -0.043301
v 0.369552 0.153073 -0.050000
v 0.415746 0.172207 -0.043301
v 0.449562 0.186215 -0.025000
v 0.433013 0.250000 0.000000
v 0.421410 0.243301 0.025000
v 0.389711 0.225000 0.043301
v 0.346410 0.200000 0.050000
v 0.303109 0.175000 0.043301
v 0.271410 0.156699 0.025000
v 0.259808 0.150000 0.000000
v 0.271410 0.156699 -0.025000
v 0.303109 0.175000 -0.043301
v 0.346410 0.200000 -0.050000
v 0.389711 0.225000 -0.043301
v 0.421410 0.243301 -0.025000
v 0.396677 0.304381 0.000000
v 0.386048 0.296225 0.025000
v 0.357009 0.273943 0.043301
v 0.317341 0.243505 0.050000
v 0.277674 0.213067 0.043301
v 0.248635 0.190784 0.025000
v 0.238006 0.182628 0.000000
v 0.248635 0.190784 -0.025000
v 0.277674 0.213067 -0.043301
v 0.317341 0.243505 -0.050000
v 0.357009 0.273943 -0.043301
v 0.386048 0.296225 -0.025000
v 0.353554 0.353553 0.000000
v 0.344080 0.344080 0.025000
v 0.318198 0.318198 0.043301
v 0.282843 0.282843 0.050000
v 0.247487 0.247487 0.043301
v 0.221606 0.221605 0.025000
v 0.212132 0.212132 0.000000
v 0.221606 0.221605 -0.025000
v 0.247487 0.247487 -0.043301
v 0.282843 0.282843 -0.050000
v 0.318198 0.318198 -0.043301
v 0.344080 0.344080 -0.025000
v 0.304381 0.396677 0.000000
v 0.296225 0.386048 0.025000
v 0.273943 0.357009 0.043301
v 0.243505 0.317341 0.050000
v 0.213067 0.277674 0.043301
v 0.190784 0.248635 0.025000
v 0.182629 0.238006 0.000000
v 0.190784 0.248635 -0.025000
v 0.213067 0.277674 -0.043301
v 0.243505 0.317341 -0.050000
v 0.273943 0.357009 -0.043301
v 0.296225 0.386048 -0.025000
v 0.250000 0.433013 0.000000
v 0.243301 0.421410 0.025000
v 0.225000 0.389711 0.043301
v 0.200000 0.346410 0.050000
v 0.175000 0.303109 0.043301
v 0.156699 0.271410 0.025000
v 0.150000 0.259808 0.000000
v 0.156699 0.271410 -0.025000
v 0.175000 0.303109 -0.043301
v 0.200000 0.346410 -0.050000
v 0.225000 0.389711 -0.043301
v 0.243301 0.421410 -0.025000
v 0.191342 0.461940 0.000000
v 0.186215 0.449562 0.025000
v 0.172208 0.415746 0.043301
v 0.153073 0.369552 0.050000
v 0.133939 0.323358 0.043301
v 0.119932 0.289541 0.025000
v 0.114805 0.277164 0.000000
v 0.119932 0.289541 -0.025000
v 0.133939 0.323358 -0.043301
v 0.153073 0.369552 -0.050000
v 0.172208 0.415746 -0.043301
v 0.186215 0.449562 -0.025000
v 0.129410 0.482963 0.000000
v 0.125942 0.470022 0.025000
v 0.116469 0.434667 0.043301
v 0.103528 0.386370 0.050000
v 0.090587 0.338074 0.043301
v 0.081113 0.302719 0.025000
v 0.077646 0.289778 0.000000
v 0.081113 0.302719 -0.025000
v 0.090587 0.338074 -0.043301
v 0.103528 0.386370 -0.050000
v 0.116469 0.434667 -0.043301
v 0.125942 0.470022 -0.025000
v 0.065263 0.495722 0.000000
v 0.063515 0.482440 0.025000
v 0.058737 0.446150 0.043301
v 0.052211 0.396578 0.050000
v 0.045684 0.347006 0.043301
v 0.040907 0.310716 0.025000
v 0.039158 0.297433 0.000000
v 0.040907 0.310716 -0.025000
v 0.045684 0.347006 -0.043301
v 0.052211 0.396578 -0.050000
v 0.058737 0.446150 -0.043301
v 0.063515 0.482440 -0.025000
v -0.000000 0.500000 0.000000
v -0.000000 0.486603 0.025000
v -0.000000 0.450000 0.043301
v -0.000000 0.400000 0.050000
v -0.000000 0.350000 0.043301
v -0.000000 0.313397 0.025000
v -0.000000 0.300000 0.000000
v -0.000000 0.313397 -0.025000
v -0.000000 0.350000 -0.043301
v -0.000000 0.400000 -0.050000
v -0.000000 0.450000 -0.043301
v -0.000000 0.486603 -0.025000
v -0.065263 0.495722 0.000000
v -0.063514 0.482440 0.025000
v -0.058737 0.446150 0.043301
v -0.052210 0.396578 0.050000
v -0.045684 0.347006 0.043301
v -0.040907 0.310716 0.025000
v -0.039158 0.297433 0.000000
v -0.040907 0.310716 -0.025000
v -0.045684 0.347006 -0.043301
v -0.052210 0.396578 -0.050000
v -0.058737 0.446150 -0.043301
v -0.063514 0.482440 -0.025000
v -0.129409 0.482963 0.000000
v -0.125942 0.470022 0.025000
v -0.116468 0.434667 0.043301
v -0.103527 0.386370 0.050000
v -0.090587 0.338074 0.043301
v -0.081113 0.302719 0.025000
v -0.077646 0.289778 0.000000
v -0.081113 0.302719 -0.025000
v -0.090587 0.338074 -0.043301
v -0.103527 0.386370 -0.050000
v -0.116468 0.434667 -0.043301
v -0.125942 0.470022 -0.025000
v -0.191342 0.461940 0.000000
v -0.186215 0.449562 0.025000
v -0.172208 0.415746 0.043301
v -0.153073 0.369552 0.050000
v -0.133939 0.323358 0.043301
v -0.119932 0.289541 0.025000
v -0.114805 0.277164 0.000000
v -0.119932 0.289541 -0.025000
v -0.133939 0.323358 -0.043301
v -0.153073 0.369552 -0.050000
v -0.172208 0.415746 -0.043301
v -0.186215 0.449562 -0.025000
v -0.250000 0.433013 0.000000
v -0.243301 0.421410 0.025000
v -0.225000 0.389711 0.043301
v -0.200000 0.346410 0.050000
v -0.175000 0.303109 0.043301
v -0.156699 0.271410 0.025000
v -0.150000 0.259808 0.000000
v -0.156699 0.271410 -0.025000
v -0.175000 0.303109 -0.043301
v -0.200000 0.346410 -0.050000
v -0.225000 0.389711 -0.043301
v -0.243301 0.421410 -0.025000
v -0.304381 0.396677 0.000000
v -0.296225 0.386048 0.025000
v -0.273943 0.357009 0.043301
v -0.243504 0.317341 0.050000
v -0.213066 0.277674 0.043301
v -0.190784 0.248635 0.025000
v -0.182628 0.238006 0.000000
v -0.190784 0.248635 -0.025000
v -0.213066 0.277674 -0.043301
v -0.243504 0.317341 -0.050000
v -0.273943 0.357009 -0.043301
v -0.296225 0.386048 -0.025000
v -0.353553 0.353554 0.000000
v -0.344080 0.344080 0.025000
v -0.318198 0.318198 0.043301
v -0.282843 0.282843 0.050000
v -0.247487 0.247488 0.043301
v -0.221605 0.221606 0.025000
v -0.212132 0.212132 0.000000
v -0.221605 0.221606 -0.025000
v -0.247487 0.247488 -0.043301
v -0.282843 0.282843 -0.050000
v -0.318198 0.318198 -0.043301
v -0.344080 0.344080 -0.025000
v -0.396677 0.304381 0.000000
v -0.386048 0.296225 0.025000
v -0.357009 0.273943 0.043301
v -0.317341 0.243505 0.050000
v -0.277674 0.213066 0.043301
v -0.248635 0.190784 0.025000
v -0.238006 0.182628 0.000000
v -0.248635 0.190784 -0.025000
v -0.277674 0.213066 -0.043301
v -0.317341 0.243505 -0.050000
v -0.357009 0.273943 -0.043301
v -0.386048 0.296225 -0.025000
v -0.433013 0.250000 0.000000
v -0.421410 0.243301 0.025000
v -0.389711 0.225000 0.043301
v -0.346410 0.200000 0.050000
v -0.303109 0.175000 0.043301
v -0.271410 0.156699 0.025000
v -0.259808 0.150000 0.000000
v -0.271410 0.156699 -0.025000
v -0.303109 0.175000 -0.043301
v -0.346410 0.200000 -0.050000
v -0.389711 0.225000 -0.043301
v -0.421410 0.243301 -0.025000
v -0.461940 0.191342 0.000000
v -0.449562 0.186215 0.025000
v -0.415746 0.172208 0.043301
v -0.369552 0.153074 0.050000
v -0.323358 0.133939 0.043301
v -0.289541 0.119932 0.025000
v -0.277164 0.114805 0.000000
v -0.289541 0.119932 -0.025000
v -0.323358 0.133939 -0.043301
v -0.369552 0.153074 -0.050000
v -0.415746 0.172208 -0.043301
v -0.449562 0.186215 -0.025000
v -0.482963 0.129409 0.000000
v -0.470022 0.125942 0.025000
v -0.434667 0.116468 0.043301
v -0.386370 0.103528 0.050000
v -0.338074 0.090587 0.043301
v -0.302719 0.081113 0.025000
v -0.289778 0.077646 0.000000
v -0.302719 0.081113 -0.025000
v -0.338074 0.090587 -0.043301
v -0.386370 0.103528 -0.050000
v -0.434667 0.116468 -0.043301
v -0.470022 0.125942 -0.025000
v -0.495722 0.065263 0.000000
v -0.482440 0.063514 0.025000
v -0.446150 0.058737 0.043301
v -0.396578 0.052210 0.050000
v -0.347006 0.045684 0.043301
v -0.310716 0.040907 0.025000
v -0.297433 0.039158 0.000000
v -0.310716 0.040907 -0.025000
v -0.347006 0.045684 -0.043301
v -0.396578 0.052210 -0.050000
v -0.446150 0.058737 -0.043301
v -0.482440 0.063514 -0.025000
vn -0.8799 -0.0577 0.4716
vn -0.4470 -0.0293 0.8940
vn -0.1328 -0.0087 0.9911
vn 0.1328 0.0087 0.9911
vn 0.4470 0.0293 0.8940
vn 0.8799 0.0577 0.4716
vn 0.8799 0.0577 -0.4716
vn 0.4470 0.0293 -0.8940
vn 0.1328 0.0087 -0.9911
vn -0.1328 -0.0087 -0.9911
vn -0.4470 -0.0293 -0.8940
vn -0.8799 -0.0577 -0.4716
vn -0.8649 -0.1720 0.4716
vn -0.4394 -0.0874 0.8940
vn -0.1305 -0.0260 0.9911
vn 0.1305 0.0260 0.9911
vn 0.4394 0.0874 0.8940
vn 0.8649 0.1720 0.4716
vn 0.8649 0.1720 -0.4716
vn 0.4394 0.0874 -0.8940
vn 0.1305 0.0260 -0.9911
vn -0.1305 -0.0260 -0.9911
vn -0.4394 -0.0874 -0.8940
vn -0.8649 -0.1720 -0.4716
vn -0.8350 -0.2835 0.4716
vn -0.4242 -0.1440 0.8940
vn -0.1260 -0.0428 0.9911
vn 0.1260 0.0428 0.9911
vn 0.4242 0.1440 0.8940
vn 0.8350 0.2835 0.4716
vn 0.8350 0.2835 -0.4716
vn 0.4242 0.1440 -0.8940
vn 0.1260 0.0428 -0.9911
vn -0.1260 -0.0428 -0.9911
vn -0.4242 -0.1440 -0.8940
vn -0.8350 -0.2835 -0.4716
vn -0.7909 -0.3900 0.4716
vn -0.4018 -0.1981 0.8940
vn -0.1193 -0.0589 0.9911
vn 0.1193 0.0589 0.9911
vn 0.4018 0.1981 0.8940
vn 0.7909 0.3900 0.4716
vn 0.7909 0.3900 -0.4716
vn 0.4018 0.1981 -0.8940
vn 0.1193 0.0589 -0.9911
vn -0.1193 -0.0589 -0.9911
vn -0.4018 -0.1981 -0.8940
vn -0.7909 -0.3900 -0.4716
vn -0.7332 -0.4899 0.4716
vn -0.3725 -0.2489 0.8940
vn -0.1106 -0.0739 0.9911
vn 0.1106 0.0739 0.9911
vn 0.3725 0.2489 0.8940
vn 0.7332 0.4899 0.4716
vn 0.7332 0.4899 -0.4716
vn 0.3725 0.2489 -0.8940
vn 0.1106 0.0739 -0.9911
vn -0.1106 -0.0739 -0.9911
vn -0.3725 -0.2489 -0.8940
vn -0.7332 -0.4899 -0.4716
vn -0.6630 -0.5814 0.4716
vn -0.3368 -0.2954 0.8940
vn -0.1000 -0.0877 0.9911
vn 0.1000 0.0877 0.9911
vn 0.3368 0.2954 0.8940
vn 0.6630 0.5814 0.4716
vn 0.6630 0.5814 -0.4716
vn 0.3368 0.2954 -0.8940
vn 0.1000 0.0877 -0.9911
vn -0.1000 -0.0877 -0.9911
vn -0.3368 -0.2954 -0.8940
vn -0.6630 -0.5814 -0.4716
vn -0.5814 -0.6630 0.4716
vn -0.2954 -0.3368 0.8940
vn -0.0877 -0.1000 0.9911
vn 0.0877 0.1000 0.9911
vn 0.2954 0.3368 0.8940
vn 0.5814 0.6630 0.4716
vn 0.5814 0.6630 -0.4716
vn 0.2954 0.3368 -0.8940
vn 0.0877 0.1000 -0.9911
vn -0.0877 -0.1000 -0.9911
vn -0.2954 -0.3368 -0.8940
vn -0.5814 -0.6630 -0.4716
vn -0.4899 -0.7332 0.4716
vn -0.2489 -0.3725 0.8940
vn -0.0739 -0.1106 0.9911
vn 0.0739 0.1106 0.9911
vn 0.2489 0.3725 0.8940
vn 0.4899 0.7332 0.4716
vn 0.4899 0.7332 -0.4716
vn 0.2489 0.3725 -0.8940
vn 0.0739 0.1106 -0.9911
vn -0.0739 -0.1106 -0.9911
vn -0.2489 -0.3725 -0.8940
vn -0.4899 -0.7332 -0.4716
vn -0.3900 -0.7909 0.4716
vn -0.1981 -0.4018 0.8940
vn -0.0589 -0.1193 0.9911
vn 0.0589 0.1193 0.9911
vn 0.1981 0.4018 0.8940
vn 0.3900 0.7909 0.4716
vn 0.3900 0.7909 -0.4716
vn 0.1981 0.4018 -0.8940
vn 0.0589 0.1193 -0.9911
vn -0.0589 -0.1193 -0.9911
vn -0.1981 -0.4018 -0.8940
vn -0.3900 -0.7909 -0.4716
vn -0.2835 -0.8350 0.4716
vn -0.1440 -0.4242 0.8940
vn -0.0428 -0.1260 0.9911
vn 0.0428 0.1260 0.9911
vn 0.1440 0.4242 0.8940
vn 0.2835 0.8350 0.4716
vn 0.2835 0.8350 -0.4716
vn 0.1440 0.4242 -0.8940
vn 0.0428 0.1260 -0.9911
vn -0.0428 -0.1260 -0.9911
vn -0.1440 -0.4242 -0.8940
vn -0.2835 -0.8350 -0.4716
vn -0.1720 -0.8649 0.4716
vn -0.0874 -0.4394 0.8940
vn -0.0260 -0.1305 0.9911
vn 0.0260 0.1305 0.9911
vn 0.0874 0.4394 0.8940
vn 0.1720 0.8649 0.4716
vn 0.1720 0.8649 -0.4716
vn 0.0874 0.4394 -0.8940
vn 0.0260 0.1305 -0.9911
vn -0.0260 -0.1305 -0.9911
vn -0.0874 -0.4394 -0.8940
vn -0.1720 -0.8649 -0.4716
vn -0.0577 -0.8799 0.4716
vn -0.0293 -0.4470 0.8940
vn -0.0087 -0.1328 0.9911
vn 0.0087 0.1328 0.9911
vn 0.0293 0.4470 0.8940
vn 0.0577 0.8799 0.4716
vn 0.0577 0.8799 -0.4716
vn 0.0293 0.4470 -0.8940
vn 0.0087 0.1328 -0.9911
vn -0.0087 -0.1328 -0.9911
vn -0.0293 -0.4470 -0.8940
vn -0.0577 -0.8799 -0.4716
vn 0.0577 -0.8799 0.4716
vn 0.0293 -0.4470 0.8940
vn 0.0087 -0.1328 0.9911
vn -0.0087 0.1328 0.9911
vn -0.0293 0.4470 0.8940
vn -0.0577 0.8799 0.4716
vn -0.0577 0.8799 -0.4716
vn -0.0293 0.4470 -0.8940
vn -0.0087 0.1328 -0.9911
vn 0.0087 -0.1328 -0.9911
vn 0.0293 -0.4470 -0.8940
vn 0.0577 -0.8799 -0.4716
vn 0.1720 -0.8649 0.4716
vn 0.0874 -0.4394 0.8940
vn 0.0260 -0.1305 0.9911
vn -0.0260 0.1305 0.9911
vn -0.0874 0.4394 0.8940
vn -0.1720 0.8649 0.4716
vn -0.1720 0.8649 -0.4716
vn -0.0874 0.4394 -0.8940
vn -0.0260 0.1305 -0.9911
vn 0.0260 -0.1305 -0.9911
vn 0.0874 -0.4394 -0.8940
vn 0.1720 -0.8649 -0.4716
vn 0.2835 -0.8350 0.4716
vn 0.1440 -0.4242 0.8940
vn 0.0428 -0.1260 0.9911
vn -0.0428 0.1260 0.9911
vn -0.1440 0.4242 0.8940
vn -0.2835 0.8350 0.4716
vn -0.2835 0.8350 -0.4716
vn -0.1440 0.4242 -0.8940
vn -0.0428 0.1260 -0.9911
vn 0.0428 -0.1260 -0.9911
vn 0.1440 -0.4242 -0.8940
vn 0.2835 -0.8350 -0.4716
vn 0.3900 -0.7909 0.4716
vn 0.1981 -0.4018 0.8940
vn 0.0589 -0.1193 0.9911
vn -0.0589 0.1193 0.9911
vn -0.1981 0.4018 0.8940
vn -0.3900 0.7909 0.4716
vn -0.3900 0.7909 -0.4716
vn -0.1981 0.4018 -0.8940
vn -0.0589 0.1193 -0.9911
vn 0.0589 -0.1193 -0.9911
vn 0.1981 -0.4018 -0.8940
vn 0.3900 -0.7909 -0.4716
vn 0.4899 -0.7332 0.4716
vn 0.2489 -0.3725 0.8940
vn 0.0739 -0.1106 0.9911
vn -0.0739 0.1106 0.9911
vn -0.2489 0.3725 0.8940
vn -0.4899 0.7332 0.4716
vn -0.4899 0.7332 -0.4716
vn -0.2489 0.3725 -0.8940
vn -0.0739 0.1106 -0.9911
vn 0.0739 -0.1106 -0.9911
vn 0.2489 -0.3725 -0.8940
vn 0.4899 -0.7332 -0.4716
vn 0.5814 -0.6630 0.4716
vn 0.2954 -0.3368 0.8940
vn 0.0877 -0.1000 0.9911
vn -0.0877 0.1000 0.9911
vn -0.2954 0.3368 0.8940
vn -0.5814 0.6630 0.4716
vn -0.5814 0.6630 -0.4716
vn -0.2954 0.3368 -0.8940
vn -0.0877 0.1000 -0.9911
vn 0.0877 -0.1000 -0.9911
vn 0.2954 -0.3368 -0.8940
vn 0.5814 -0.6630 -0.4716
vn 0.6630 -0.5814 0.4716
vn 0.3368 -0.2954 0.8940
vn 0.1000 -0.0877 0.9911
vn -0.1000 0.0877 0.9911
vn -0.3368 0.2954 0.8940
vn -0.6630 0.5814 0.4716
vn -0.6630 0.5814 -0.4716
vn -0.3368 0.2954 -0.8940
vn -0.1000 0.0877 -0.9911
vn 0.1000 -0.0877 -0.9911
vn 0.3368 -0.2954 -0.8940
vn 0.6630 -0.5814 -0.4716
vn 0.7332 -0.4899 0.4716
vn 0.3725 -0.2489 0.8940
vn 0.1106 -0.0739 0.9911
vn -0.1106 0.0739 0.9911
vn -0.3725 0.2489 0.8940
vn -0.7332 0.4899 0.4716
vn -0.7332 0.4899 -0.4716
vn -0.3725 0.2489 -0.8940
vn -0.1106 0.0739 -0.9911
vn 0.1106 -0.0739 -0.9911
vn 0.3725 -0.2489 -0.8940
vn 0.7332 -0.4899 -0.4716
vn 0.7909 -0.3900 0.4716
vn 0.4018 -0.1981 0.8940
vn 0.1193 -0.0589 0.9911
vn -0.1193 0.0589 0.9911
vn -0.4018 0.1981 0.8940
vn -0.7909 0.3900 0.4716
vn -0.7909 0.3900 -0.4716
vn -0.4018 0.1981 -0.8940
vn -0.1193 0.0589 -0.9911
vn 0.1193 -0.0589 -0.9911
vn 0.4018 -0.1981 -0.8940
vn 0.7909 -0.3900 -0.4716
vn 0.8350 -0.2835 0.4716
vn 0.4242 -0.1440 0.8940
vn 0.1260 -0.0428 0.9911
vn -0.1260 0.0428 0.9911
vn -0.4242 0.1440 0.8940
vn -0.8350 0.2835 0.4716
vn -0.8350 0.2835 -0.4716
vn -0.4242 0.1440 -0.8940
vn -0.1260 0.0428 -0.9911
vn 0.1260 -0.0428 -0.9911
vn 0.4242 -0.1440 -0.8940
vn 0.8350 -0.2835 -0.4716
vn 0.8649 -0.1720 0.4716
vn 0.4394 -0.0874 0.8940
vn 0.1305 -0.0260 0.9911
vn -0.1305 0.0260 0.9911
vn -0.4394 0.0874 0.8940
vn -0.8649 0.1720 0.4716
vn -0.8649 0.1720 -0.4716
vn -0.4394 0.0874 -0.8940
vn -0.1305 0.0260 -0.9911
vn 0.1305 -0.0260 -0.9911
vn 0.4394 -0.0874 -0.8940
vn 0.8649 -0.1720 -0.4716
vn 0.8799 -0.0577 0.4716
vn 0.4470 -0.0293 0.8940
vn 0.1328 -0.0087 0.9911
vn -0.1328 0.0087 0.9911
vn -0.4470 0.0293 0.8940
vn -0.8799 0.0577 0.4716
vn -0.8799 0.0577 -0.4716
vn -0.4470 0.0293 -0.8940
vn -0.1328 0.0087 -0.9911
vn 0.1328 -0.0087 -0.9911
vn 0.4470 -0.0293 -0.8940
vn 0.8799 -0.0577 -0.4716
vt 0.520833 0.500000
vt 0.500000 0.583333
vt 0.500000 0.500000
vt 0.520833 0.583333
vt 0.500000 0.666667
vt 0.520833 0.750000
vt 0.500000 0.750000
vt 0.500000 0.833333
vt 0.520833 0.833333
vt 0.500000 0.916667
vt 0.520833 0.916667
vt 0.500000 1.000000
vt 0.520833 0.000000
vt 0.500000 0.083333
vt 0.500000 0.000000
vt 0.520833 0.166667
vt 0.500000 0.166667
vt 0.500000 0.250000
vt 0.520833 0.250000
vt 0.500000 0.333333
vt 0.520833 0.333333
vt 0.500000 0.416667
vt 0.520833 0.416667
vt 0.541667 0.500000
vt 0.541667 0.583333
vt 0.520833 0.666667
vt 0.541667 0.666667
vt 0.541667 0.750000
vt 0.541667 0.833333
vt 0.541667 0.916667
vt 0.520833 1.000000
vt 0.541667 0.000000
vt 0.520833 0.083333
vt 0.541667 0.166667
vt 0.541667 0.250000
vt 0.541667 0.416667
vt 0.562500 0.500000
vt 0.562500 0.583333
vt 0.562500 0.750000
vt 0.562500 0.916667
vt 0.541667 1.000000
vt 0.562500 0.000000
vt 0.541667 0.083333
vt 0.562500 0.083333
vt 0.562500 0.166667
vt 0.562500 0.333333
vt 0.541667 0.333333
vt 0.583333 0.583333
vt 0.562500 0.666667
vt 0.583333 0.666667
vt 0.583333 0.750000
vt 0.562500 0.833333
vt 0.583333 0.833333
vt 0.583333 0.916667
vt 0.562500 1.000000
vt 0.583333 0.000000
vt 0.583333 0.083333
vt 0.583333 0.250000
vt 0.562500 0.250000
vt 0.583333 0.333333
vt 0.583333 0.416667
vt 0.562500 0.416667
vt 0.604167 0.500000
vt 0.583333 0.500000
vt 0.604167 0.583333
vt 0.604167 0.750000
vt 0.604167 0.916667
vt 0.583333 1.000000
vt 0.604167 0.083333
vt 0.583333 0.166667
vt 0.604167 0.250000
vt 0.604167 0.333333
vt 0.625000 0.500000
vt 0.625000 0.583333
vt 0.604167 0.666667
vt 0.625000 0.666667
vt 0.625000 0.750000
vt 0.604167 0.833333
vt 0.625000 0.916667
vt 0.604167 1.000000
vt 0.625000 0.000000
vt 0.604167 0.000000
vt 0.625000 0.083333
vt 0.604167 0.166667
vt 0.625000 0.250000
vt 0.625000 0.333333
vt 0.625000 0.416667
vt 0.604167 0.416667
vt 0.645833 0.500000
vt 0.645833 0.583333
vt 0.645833 0.750000
vt 0.625000 0.833333
vt 0.645833 0.833333
vt 0.645833 0.916667
vt 0.625000 1.000000
vt 0.645833 0.083333
vt 0.645833 0.166667
vt 0.625000 0.166667
vt 0.645833 0.250000
vt 0.645833 0.333333
vt 0.645833 0.416667
vt 0.666667 0.500000
vt 0.666667 0.666667
vt 0.645833 0.666667
vt 0.666667 0.833333
vt 0.666667 0.916667
vt 0.666667 1.000000
vt 0.645833 1.000000
vt 0.666667 0.000000
vt 0.645833 0.000000
vt 0.666667 0.083333
vt 0.666667 0.166667
vt 0.666667 0.250000
vt 0.666667 0.333333
vt 0.687500 0.500000
vt 0.666667 0.583333
vt 0.687500 0.583333
vt 0.687500 0.750000
vt 0.666667 0.750000
vt 0.687500 0.833333
vt 0.687500 0.916667
vt 0.687500 0.083333
vt 0.687500 0.166667
vt 0.687500 0.250000
vt 0.687500 0.416667
vt 0.666667 0.416667
vt 0.708333 0.583333
vt 0.708333 0.666667
vt 0.687500 0.666667
vt 0.708333 0.833333
vt 0.708333 0.916667
vt 0.687500 1.000000
vt 0.687500 0.000000
vt 0.708333 0.083333
vt 0.708333 0.166667
vt 0.708333 0.333333
vt 0.687500 0.333333
vt 0.708333 0.416667
vt 0.708333 0.500000
vt 0.729167 0.583333
vt 0.729167 0.750000
vt 0.708333 0.750000
vt 0.729167 0.833333
vt 0.729167 0.916667
vt 0.708333 1.000000
vt 0.729167 0.000000
vt 0.708333 0.000000
vt 0.729167 0.166667
vt 0.729167 0.250000
vt 0.708333 0.250000
vt 0.729167 0.333333
vt 0.729167 0.416667
vt 0.750000 0.500000
vt 0.729167 0.500000
vt 0.750000 0.666667
vt 0.729167 0.666667
vt 0.750000 0.750000
vt 0.750000 0.833333
vt 0.750000 0.916667
vt 0.729167 1.000000
vt 0.750000 0.000000
vt 0.729167 0.083333
vt 0.750000 0.083333
vt 0.750000 0.166667
vt 0.750000 0.333333
vt 0.750000 0.416667
vt 0.770833 0.500000
vt 0.750000 0.583333
vt 0.770833 0.583333
vt 0.770833 0.666667
vt 0.770833 0.750000
vt 0.770833 0.916667
vt 0.750000 1.000000
vt 0.770833 0.083333
vt 0.770833 0.166667
vt 0.750000 0.250000
vt 0.770833 0.250000
vt 0.770833 0.416667
vt 0.791667 0.583333
vt 0.791667 0.666667
vt 0.791667 0.750000
vt 0.770833 0.833333
vt 0.791667 0.833333
vt 0.791667 0.916667
vt 0.770833 1.000000
vt 0.770833 0.000000
vt 0.791667 0.083333
vt 0.791667 0.250000
vt 0.770833 0.333333
vt 0.791667 0.333333
vt 0.791667 0.416667
vt 0.791667 0.500000
vt 0.812500 0.583333
vt 0.812500 0.750000
vt 0.812500 0.833333
vt 0.812500 0.916667
vt 0.791667 1.000000
vt 0.791667 0.000000
vt 0.812500 0.083333
vt 0.812500 0.166667
vt 0.791667 0.166667
vt 0.812500 0.250000
vt 0.812500 0.333333
vt 0.812500 0.416667
vt 0.833333 0.500000
vt 0.812500 0.500000
vt 0.833333 0.583333
vt 0.812500 0.666667
vt 0.833333 0.750000
vt 0.833333 0.833333
vt 0.833333 1.000000
vt 0.812500 1.000000
vt 0.833333 0.000000
vt 0.812500 0.000000
vt 0.833333 0.166667
vt 0.833333 0.250000
vt 0.833333 0.416667
vt 0.854167 0.500000
vt 0.854167 0.583333
vt 0.833333 0.666667
vt 0.854167 0.750000
vt 0.854167 0.833333
vt 0.833333 0.916667
vt 0.854167 0.916667
vt 0.854167 0.000000
vt 0.833333 0.083333
vt 0.854167 0.166667
vt 0.854167 0.250000
vt 0.833333 0.333333
vt 0.854167 0.416667
vt 0.875000 0.583333
vt 0.854167 0.666667
vt 0.875000 0.750000
vt 0.875000 0.833333
vt 0.875000 0.916667
vt 0.854167 1.000000
vt 0.875000 0.083333
vt 0.854167 0.083333
vt 0.875000 0.166667
vt 0.875000 0.250000
vt 0.854167 0.333333
vt 0.875000 0.333333
vt 0.875000 0.416667
vt 0.875000 0.500000
vt 0.895833 0.583333
vt 0.895833 0.666667
vt 0.875000 0.666667
vt 0.895833 0.833333
vt 0.895833 0.916667
vt 0.875000 1.000000
vt 0.895833 0.000000
vt 0.875000 0.000000
vt 0.895833 0.083333
vt 0.895833 0.166667
vt 0.895833 0.250000
vt 0.895833 0.416667
vt 0.895833 0.500000
vt 0.916667 0.583333
vt 0.916667 0.750000
vt 0.895833 0.750000
vt 0.916667 0.833333
vt 0.916667 0.916667
vt 0.895833 1.000000
vt 0.916667 0.000000
vt 0.916667 0.083333
vt 0.916667 0.166667
vt 0.916667 0.333333
vt 0.895833 0.333333
vt 0.916667 0.416667
vt 0.916667 0.500000
vt 0.937500 0.583333
vt 0.916667 0.666667
vt 0.937500 0.666667
vt 0.937500 0.750000
vt 0.937500 0.916667
vt 0.916667 1.000000
vt 0.937500 0.083333
vt 0.937500 0.166667
vt 0.937500 0.250000
vt 0.916667 0.250000
vt 0.937500 0.333333
vt 0.937500 0.416667
vt 0.937500 0.500000
vt 0.958333 0.583333
vt 0.958333 0.666667
vt 0.958333 0.833333
vt 0.937500 0.833333
vt 0.958333 0.916667
vt 0.958333 1.000000
vt 0.937500 1.000000
vt 0.958333 0.000000
vt 0.937500 0.000000
vt 0.958333 0.083333
vt 0.958333 0.166667
vt 0.958333 0.250000
vt 0.958333 0.333333
vt 0.958333 0.416667
vt 0.979167 0.500000
vt 0.958333 0.500000
vt 0.979167 0.583333
vt 0.979167 0.666667
vt 0.958333 0.750000
vt 0.979167 0.750000
vt 0.979167 0.833333
vt 0.979167 1.000000
vt 0.979167 0.000000
vt 0.979167 0.083333
vt 0.979167 0.250000
vt 0.979167 0.333333
vt 0.979167 0.416667
vt 1.000000 0.583333
vt 1.000000 0.666667
vt 1.000000 0.750000
vt 1.000000 0.833333
vt 0.979167 0.916667
vt 1.000000 0.916667
vt 1.000000 0.000000
vt 1.000000 0.083333
vt 0.979167 0.166667
vt 1.000000 0.166667
vt 1.000000 0.250000
vt 1.000000 0.333333
vt 1.000000 0.416667
vt 0.020833 0.500000
vt 0.000000 0.583333
vt 0.000000 0.500000
vt 0.020833 0.583333
vt 0.000000 0.666667
vt 0.020833 0.666667
vt 0.000000 0.750000
vt 0.020833 0.750000
vt 0.000000 0.833333
vt 0.020833 0.833333
vt 0.000000 0.916667
vt 0.020833 1.000000
vt 0.000000 1.000000
vt 0.020833 0.000000
vt 0.000000 0.083333
vt 0.000000 0.000000
vt 0.020833 0.083333
vt 0.000000 0.166667
vt 0.020833 0.166667
vt 0.000000 0.250000
vt 0.020833 0.333333
vt 0.000000 0.333333
vt 0.020833 0.416667
vt 0.000000 0.416667
vt 0.041667 0.583333
vt 0.041667 0.666667
vt 0.041667 0.750000
vt 0.041667 0.833333
vt 0.020833 0.916667
vt 0.041667 0.916667
vt 0.041667 0.083333
vt 0.041667 0.166667
vt 0.020833 0.250000
vt 0.041667 0.250000
vt 0.041667 0.333333
vt 0.041667 0.416667
vt 0.062500 0.500000
vt 0.041667 0.500000
vt 0.062500 0.583333
vt 0.062500 0.666667
vt 0.062500 0.750000
vt 0.062500 0.833333
vt 0.062500 0.916667
vt 0.041667 1.000000
vt 0.041667 0.000000
vt 0.062500 0.083333
vt 0.062500 0.166667
vt 0.062500 0.250000
vt 0.062500 0.416667
vt 0.083333 0.500000
vt 0.083333 0.583333
vt 0.083333 0.666667
vt 0.083333 0.750000
vt 0.083333 0.833333
vt 0.083333 0.916667
vt 0.062500 1.000000
vt 0.083333 0.000000
vt 0.062500 0.000000
vt 0.083333 0.166667
vt 0.083333 0.250000
vt 0.062500 0.333333
vt 0.083333 0.416667
vt 0.104167 0.500000
vt 0.104167 0.583333
vt 0.104167 0.666667
vt 0.104167 0.833333
vt 0.104167 0.916667
vt 0.083333 1.000000
vt 0.104167 0.083333
vt 0.083333 0.083333
vt 0.104167 0.166667
vt 0.104167 0.333333
vt 0.083333 0.333333
vt 0.104167 0.416667
vt 0.125000 0.583333
vt 0.125000 0.666667
vt 0.104167 0.750000
vt 0.125000 0.750000
vt 0.125000 0.833333
vt 0.125000 0.916667
vt 0.104167 1.000000
vt 0.104167 0.000000
vt 0.125000 0.083333
vt 0.125000 0.166667
vt 0.125000 0.250000
vt 0.104167 0.250000
vt 0.125000 0.416667
vt 0.125000 0.500000
vt 0.145833 0.500000
vt 0.145833 0.583333
vt 0.145833 0.750000
vt 0.145833 0.916667
vt 0.125000 1.000000
vt 0.125000 0.000000
vt 0.145833 0.083333
vt 0.145833 0.166667
vt 0.145833 0.250000
vt 0.125000 0.333333
vt 0.145833 0.333333
vt 0.166667 0.500000
vt 0.166667 0.666667
vt 0.145833 0.666667
vt 0.166667 0.750000
vt 0.166667 0.833333
vt 0.145833 0.833333
vt 0.166667 0.916667
vt 0.145833 1.000000
vt 0.166667 0.000000
vt 0.145833 0.000000
vt 0.166667 0.083333
vt 0.166667 0.166667
vt 0.166667 0.333333
vt 0.145833 0.416667
vt 0.166667 0.416667
vt 0.187500 0.500000
vt 0.166667 0.583333
vt 0.187500 0.666667
vt 0.187500 0.750000
vt 0.187500 0.833333
vt 0.187500 0.916667
vt 0.166667 1.000000
vt 0.187500 0.083333
vt 0.187500 0.166667
vt 0.166667 0.250000
vt 0.187500 0.250000
vt 0.187500 0.333333
vt 0.187500 0.416667
vt 0.208333 0.583333
vt 0.187500 0.583333
vt 0.208333 0.666667
vt 0.208333 0.833333
vt 0.208333 0.916667
vt 0.187500 1.000000
vt 0.208333 0.000000
vt 0.187500 0.000000
vt 0.208333 0.083333
vt 0.208333 0.250000
vt 0.208333 0.333333
vt 0.208333 0.416667
vt 0.208333 0.500000
vt 0.229167 0.583333
vt 0.229167 0.666667
vt 0.208333 0.750000
vt 0.229167 0.750000
vt 0.229167 0.916667
vt 0.229167 1.000000
vt 0.208333 1.000000
vt 0.229167 0.000000
vt 0.229167 0.083333
vt 0.208333 0.166667
vt 0.229167 0.250000
vt 0.229167 0.333333
vt 0.229167 0.500000
vt 0.250000 0.500000
vt 0.250000 0.666667
vt 0.250000 0.750000
vt 0.229167 0.833333
vt 0.250000 0.833333
vt 0.250000 1.000000
vt 0.250000 0.000000
vt 0.250000 0.083333
vt 0.229167 0.166667
vt 0.250000 0.250000
vt 0.250000 0.416667
vt 0.229167 0.416667
vt 0.270833 0.500000
vt 0.250000 0.583333
vt 0.270833 0.583333
vt 0.270833 0.750000
vt 0.270833 0.833333
vt 0.250000 0.916667
vt 0.270833 0.916667
vt 0.270833 0.000000
vt 0.270833 0.166667
vt 0.250000 0.166667
vt 0.270833 0.250000
vt 0.250000 0.333333
vt 0.270833 0.333333
vt 0.270833 0.416667
vt 0.291667 0.500000
vt 0.291667 0.583333
vt 0.270833 0.666667
vt 0.291667 0.666667
vt 0.291667 0.750000
vt 0.291667 0.833333
vt 0.291667 0.916667
vt 0.270833 1.000000
vt 0.291667 0.000000
vt 0.270833 0.083333
vt 0.291667 0.083333
vt 0.291667 0.250000
vt 0.291667 0.333333
vt 0.312500 0.500000
vt 0.312500 0.583333
vt 0.312500 0.666667
vt 0.312500 0.750000
vt 0.312500 0.833333
vt 0.312500 0.916667
vt 0.291667 1.000000
vt 0.312500 0.000000
vt 0.312500 0.083333
vt 0.291667 0.166667
vt 0.312500 0.166667
vt 0.312500 0.333333
vt 0.312500 0.416667
vt 0.291667 0.416667
vt 0.333333 0.583333
vt 0.333333 0.666667
vt 0.333333 0.833333
vt 0.333333 0.916667
vt 0.333333 1.000000
vt 0.312500 1.000000
vt 0.333333 0.000000
vt 0.333333 0.083333
vt 0.333333 0.250000
vt 0.312500 0.250000
vt 0.333333 0.333333
vt 0.333333 0.416667
vt 0.333333 0.500000
vt 0.354167 0.583333
vt 0.354167 0.666667
vt 0.333333 0.750000
vt 0.354167 0.750000
vt 0.354167 0.833333
vt 0.354167 0.916667
vt 0.354167 0.083333
vt 0.333333 0.166667
vt 0.354167 0.250000
vt 0.354167 0.333333
vt 0.354167 0.416667
vt 0.354167 0.500000
vt 0.375000 0.583333
vt 0.375000 0.750000
vt 0.375000 0.833333
vt 0.375000 1.000000
vt 0.354167 1.000000
vt 0.354167 0.000000
vt 0.375000 0.083333
vt 0.354167 0.166667
vt 0.375000 0.166667
vt 0.375000 0.250000
vt 0.375000 0.416667
vt 0.395833 0.500000
vt 0.375000 0.500000
vt 0.395833 0.583333
vt 0.375000 0.666667
vt 0.395833 0.666667
vt 0.395833 0.750000
vt 0.395833 0.833333
vt 0.375000 0.916667
vt 0.395833 1.000000
vt 0.395833 0.000000
vt 0.375000 0.000000
vt 0.395833 0.166667
vt 0.395833 0.250000
vt 0.395833 0.333333
vt 0.375000 0.333333
vt 0.395833 0.416667
vt 0.416667 0.583333
vt 0.416667 0.666667
vt 0.416667 0.833333
vt 0.395833 0.916667
vt 0.416667 0.916667
vt 0.416667 0.000000
vt 0.395833 0.083333
vt 0.416667 0.166667
vt 0.416667 0.250000
vt 0.416667 0.333333
vt 0.416667 0.416667
vt 0.437500 0.500000
vt 0.416667 0.500000
vt 0.437500 0.666667
vt 0.437500 0.750000
vt 0.416667 0.750000
vt 0.437500 0.833333
vt 0.437500 1.000000
vt 0.416667 1.000000
vt 0.437500 0.000000
vt 0.416667 0.083333
vt 0.437500 0.083333
vt 0.437500 0.166667
vt 0.437500 0.250000
vt 0.437500 0.333333
vt 0.458333 0.500000
vt 0.437500 0.583333
vt 0.458333 0.583333
vt 0.458333 0.666667
vt 0.458333 0.750000
vt 0.458333 0.833333
vt 0.437500 0.916667
vt 0.458333 0.916667
vt 0.458333 0.000000
vt 0.458333 0.166667
vt 0.458333 0.250000
vt 0.458333 0.333333
vt 0.437500 0.416667
vt 0.479167 0.500000
vt 0.479167 0.666667
vt 0.479167 0.750000
vt 0.479167 0.833333
vt 0.479167 1.000000
vt 0.458333 1.000000
vt 0.479167 0.000000
vt 0.458333 0.083333
vt 0.479167 0.083333
vt 0.479167 0.166667
vt 0.479167 0.250000
vt 0.479167 0.333333
vt 0.458333 0.416667
vt 0.479167 0.583333
vt 0.479167 0.916667
vt 0.479167 0.416667
vt 1.000000 0.500000
vt 1.000000 1.000000
s 0
usemtl マテリアル
f 13/1/1 2/2/1 1/3/1
f 14/4/2 3/5/2 2/2/2
f 3/5/3 16/6/3 4/7/3
f 16/6/4 5/8/4 4/7/4
f 17/9/5 6/10/5 5/8/5
f 18/11/6 7/12/6 6/10/6
f 19/13/7 8/14/7 7/15/7
f 8/14/8 21/16/8 9/17/8
f 21/16/9 10/18/9 9/17/9
f 22/19/10 11/20/10 10/18/10
f 23/21/11 12/22/11 11/20/11
f 24/23/12 1/3/12 12/22/12
f 25/24/13 14/4/13 13/1/13
f 26/25/14 15/26/14 14/4/14
f 27/27/15 16/6/15 15/26/15
f 28/28/16 17/9/16 16/6/16
f 29/29/17 18/11/17 17/9/17
f 30/30/18 19/31/18 18/11/18
f 31/32/19 20/33/19 19/13/19
f 20/33/20 33/34/20 21/16/20
f 33/34/21 22/19/21 21/16/21
f 34/35/22 23/21/22 22/19/22
f 23/21/23 36/36/23 24/23/23
f 24/23/24 25/24/24 13/1/24
f 37/37/25 26/25/25 25/24/25
f 38/38/26 27/27/26 26/25/26
f 27/27/27 40/39/27 28/28/27
f 40/39/28 29/29/28 28/28/28
f 29/29/29 42/40/29 30/30/29
f 42/40/30 31/41/30 30/30/30
f 43/42/31 32/43/31 31/32/31
f 44/44/32 33/34/32 32/43/32
f 45/45/33 34/35/33 33/34/33
f 34/35/34 47/46/34 35/47/34
f 47/46/35 36/36/35 35/47/35
f 36/36/36 37/37/36 25/24/36
f 37/37/37 50/48/37 38/38/37
f 50/48/38 39/49/38 38/38/38
f 51/50/39 40/39/39 39/49/39
f 52/51/40 41/52/40 40/39/40
f 53/53/41 42/40/41 41/52/41
f 54/54/42 43/55/42 42/40/42
f 55/56/43 44/44/43 43/42/43
f 56/57/44 45/45/44 44/44/44
f 45/45/45 58/58/45 46/59/45
f 46/59/46 59/60/46 47/46/46
f 47/46/47 60/61/47 48/62/47
f 60/61/48 37/37/48 48/62/48
f 61/63/49 50/48/49 49/64/49
f 62/65/50 51/50/50 50/48/50
f 51/50/51 64/66/51 52/51/51
f 64/66/52 53/53/52 52/51/52
f 53/53/53 66/67/53 54/54/53
f 66/67/54 55/68/54 54/54/54
f 55/56/55 68/69/55 56/57/55
f 68/69/56 57/70/56 56/57/56
f 57/70/57 70/71/57 58/58/57
f 70/71/58 59/60/58 58/58/58
f 71/72/59 60/61/59 59/60/59
f 60/61/60 61/63/60 49/64/60
f 73/73/61 62/65/61 61/63/61
f 74/74/62 63/75/62 62/65/62
f 75/76/63 64/66/63 63/75/63
f 76/77/64 65/78/64 64/66/64
f 65/78/65 78/79/65 66/67/65
f 78/79/66 67/80/66 66/67/66
f 79/81/67 68/69/67 67/82/67
f 80/83/68 69/84/68 68/69/68
f 69/84/69 82/85/69 70/71/69
f 70/71/70 83/86/70 71/72/70
f 71/72/71 84/87/71 72/88/71
f 84/87/72 61/63/72 72/88/72
f 85/89/73 74/74/73 73/73/73
f 86/90/74 75/76/74 74/74/74
f 75/76/75 88/91/75 76/77/75
f 88/91/76 77/92/76 76/77/76
f 89/93/77 78/79/77 77/92/77
f 90/94/78 79/95/78 78/79/78
f 79/81/79 92/96/79 80/83/79
f 80/83/80 93/97/80 81/98/80
f 81/98/81 94/99/81 82/85/81
f 82/85/82 95/100/82 83/86/82
f 95/100/83 84/87/83 83/86/83
f 96/101/84 73/73/84 84/87/84
f 97/102/85 86/90/85 85/89/85
f 86/90/86 99/103/86 87/104/86
f 99/103/87 88/91/87 87/104/87
f 88/91/88 101/105/88 89/93/88
f 89/93/89 102/106/89 90/94/89
f 90/94/90 103/107/90 91/108/90
f 103/109/91 92/96/91 91/110/91
f 104/111/92 93/97/92 92/96/92
f 105/112/93 94/99/93 93/97/93
f 106/113/94 95/100/94 94/99/94
f 107/114/95 96/101/95 95/100/95
f 96/101/96 97/102/96 85/89/96
f 109/115/97 98/116/97 97/102/97
f 110/117/98 99/103/98 98/116/98
f 99/103/99 112/118/99 100/119/99
f 100/119/100 113/120/100 101/105/100
f 113/120/101 102/106/101 101/105/101
f 114/121/102 103/107/102 102/106/102
f 103/109/103 116/122/103 104/111/103
f 104/111/104 117/123/104 105/112/104
f 105/112/105 118/124/105 106/113/105
f 118/124/106 107/114/106 106/113/106
f 107/114/107 120/125/107 108/126/107
f 108/126/108 109/115/108 97/102/108
f 109/115/109 122/127/109 110/117/109
f 110/117/110 123/128/110 111/129/110
f 123/128/111 112/118/111 111/129/111
f 112/118/112 125/130/112 113/120/112
f 113/120/113 126/131/113 114/121/113
f 126/131/114 115/132/114 114/121/114
f 115/133/115 128/134/115 116/122/115
f 128/134/116 117/123/116 116/122/116
f 129/135/117 118/124/117 117/123/117
f 118/124/118 131/136/118 119/137/118
f 131/136/119 120/125/119 119/137/119
f 132/138/120 109/115/120 120/125/120
f 121/139/121 134/140/121 122/127/121
f 134/140/122 123/128/122 122/127/122
f 123/128/123 136/141/123 124/142/123
f 136/141/124 125/130/124 124/142/124
f 137/143/125 126/131/125 125/130/125
f 138/144/126 127/145/126 126/131/126
f 139/146/127 128/134/127 127/147/127
f 128/134/128 141/148/128 129/135/128
f 129/135/129 142/149/129 130/150/129
f 142/149/130 131/136/130 130/150/130
f 143/151/131 132/138/131 131/136/131
f 144/152/132 121/139/132 132/138/132
f 145/153/133 134/140/133 133/154/133
f 134/140/134 147/155/134 135/156/134
f 135/156/135 148/157/135 136/141/135
f 136/141/136 149/158/136 137/143/136
f 137/143/137 150/159/137 138/144/137
f 150/159/138 139/160/138 138/144/138
f 151/161/139 140/162/139 139/146/139
f 152/163/140 141/148/140 140/162/140
f 153/164/141 142/149/141 141/148/141
f 142/149/142 155/165/142 143/151/142
f 155/165/143 144/152/143 143/151/143
f 156/166/144 133/154/144 144/152/144
f 157/167/145 146/168/145 145/153/145
f 158/169/146 147/155/146 146/168/146
f 159/170/147 148/157/147 147/155/147
f 160/171/148 149/158/148 148/157/148
f 149/158/149 162/172/149 150/159/149
f 162/172/150 151/173/150 150/159/150
f 151/161/151 164/174/151 152/163/151
f 152/163/152 165/175/152 153/164/152
f 165/175/153 154/176/153 153/164/153
f 166/177/154 155/165/154 154/176/154
f 155/165/155 168/178/155 156/166/155
f 168/178/156 145/153/156 156/166/156
f 157/167/157 170/179/157 158/169/157
f 158/169/158 171/180/158 159/170/158
f 171/180/159 160/171/159 159/170/159
f 172/181/160 161/182/160 160/171/160
f 173/183/161 162/172/161 161/182/161
f 174/184/162 163/185/162 162/172/162
f 163/186/163 176/187/163 164/174/163
f 176/187/164 165/175/164 164/174/164
f 165/175/165 178/188/165 166/177/165
f 178/188/166 167/189/166 166/177/166
f 179/190/167 168/178/167 167/189/167
f 180/191/168 157/167/168 168/178/168
f 169/192/169 182/193/169 170/179/169
f 182/193/170 171/180/170 170/179/170
f 171/180/171 184/194/171 172/181/171
f 184/194/172 173/183/172 172/181/172
f 185/195/173 174/184/173 173/183/173
f 186/196/174 175/197/174 174/184/174
f 175/198/175 188/199/175 176/187/175
f 176/187/176 189/200/176 177/201/176
f 177/201/177 190/202/177 178/188/177
f 190/202/178 179/190/178 178/188/178
f 191/203/179 180/191/179 179/190/179
f 192/204/180 169/192/180 180/191/180
f 193/205/181 182/193/181 181/206/181
f 194/207/182 183/208/182 182/193/182
f 183/208/183 196/209/183 184/194/183
f 196/209/184 185/195/184 184/194/184
f 197/210/185 186/196/185 185/195/185
f 186/196/186 199/211/186 187/212/186
f 199/213/187 188/199/187 187/214/187
f 188/199/188 201/215/188 189/200/188
f 201/215/189 190/202/189 189/200/189
f 202/216/190 191/203/190 190/202/190
f 191/203/191 204/217/191 192/204/191
f 204/217/192 181/206/192 192/204/192
f 205/218/193 194/207/193 193/205/193
f 206/219/194 195/220/194 194/207/194
f 195/220/195 208/221/195 196/209/195
f 208/221/196 197/210/196 196/209/196
f 209/222/197 198/223/197 197/210/197
f 210/224/198 199/211/198 198/223/198
f 211/225/199 200/226/199 199/213/199
f 200/226/200 213/227/200 201/215/200
f 213/227/201 202/216/201 201/215/201
f 214/228/202 203/229/202 202/216/202
f 203/229/203 216/230/203 204/217/203
f 204/217/204 205/218/204 193/205/204
f 205/218/205 218/231/205 206/219/205
f 218/231/206 207/232/206 206/219/206
f 207/232/207 220/233/207 208/221/207
f 220/233/208 209/222/208 208/221/208
f 221/234/209 210/224/209 209/222/209
f 222/235/210 211/236/210 210/224/210
f 211/225/211 224/237/211 212/238/211
f 212/238/212 225/239/212 213/227/212
f 225/239/213 214/228/213 213/227/213
f 226/240/214 215/241/214 214/228/214
f 227/242/215 216/230/215 215/241/215
f 228/243/216 205/218/216 216/230/216
f 217/244/217 230/245/217 218/231/217
f 218/231/218 231/246/218 219/247/218
f 231/246/219 220/233/219 219/247/219
f 220/233/220 233/248/220 221/234/220
f 221/234/221 234/249/221 222/235/221
f 234/249/222 223/250/222 222/235/222
f 235/251/223 224/237/223 223/252/223
f 236/253/224 225/239/224 224/237/224
f 237/254/225 226/240/225 225/239/225
f 238/255/226 227/242/226 226/240/226
f 227/242/227 240/256/227 228/243/227
f 240/256/228 217/244/228 228/243/228
f 229/257/229 242/258/229 230/245/229
f 242/258/230 231/246/230 230/245/230
f 231/246/231 244/259/231 232/260/231
f 232/260/232 245/261/232 233/248/232
f 233/248/233 246/262/233 234/249/233
f 246/262/234 235/263/234 234/249/234
f 247/264/235 236/253/235 235/251/235
f 248/265/236 237/254/236 236/253/236
f 249/266/237 238/255/237 237/254/237
f 238/255/238 251/267/238 239/268/238
f 239/268/239 252/269/239 240/256/239
f 252/269/240 229/257/240 240/256/240
f 241/270/241 254/271/241 242/258/241
f 254/271/242 243/272/242 242/258/242
f 255/273/243 244/259/243 243/272/243
f 256/274/244 245/261/244 244/259/244
f 245/261/245 258/275/245 246/262/245
f 258/275/246 247/276/246 246/262/246
f 247/264/247 260/277/247 248/265/247
f 248/265/248 261/278/248 249/266/248
f 249/266/249 262/279/249 250/280/249
f 262/279/250 251/267/250 250/280/250
f 263/281/251 252/269/251 251/267/251
f 264/282/252 241/270/252 252/269/252
f 253/283/253 266/284/253 254/271/253
f 254/271/254 267/285/254 255/273/254
f 267/285/255 256/274/255 255/273/255
f 256/274/256 269/286/256 257/287/256
f 257/287/257 270/288/257 258/275/257
f 258/275/258 271/289/258 259/290/258
f 271/291/259 260/277/259 259/292/259
f 272/293/260 261/278/260 260/277/260
f 273/294/261 262/279/261 261/278/261
f 274/295/262 263/281/262 262/279/262
f 275/296/263 264/282/263 263/281/263
f 276/297/264 253/283/264 264/282/264
f 277/298/265 266/284/265 265/299/265
f 278/300/266 267/285/266 266/284/266
f 279/301/267 268/302/267 267/285/267
f 280/303/268 269/286/268 268/302/268
f 281/304/269 270/288/269 269/286/269
f 270/288/270 283/305/270 271/289/270
f 283/306/271 272/293/271 271/291/271
f 284/307/272 273/294/272 272/293/272
f 273/294/273 286/308/273 274/295/273
f 274/295/274 287/309/274 275/296/274
f 275/296/275 288/310/275 276/297/275
f 276/297/276 277/298/276 265/299/276
f 277/298/277 290/311/277 278/300/277
f 278/300/278 291/312/278 279/301/278
f 279/301/279 292/313/279 280/303/279
f 292/313/280 281/304/280 280/303/280
f 293/314/281 282/315/281 281/304/281
f 294/316/282 283/305/282 282/315/282
f 295/317/283 284/307/283 283/306/283
f 296/318/284 285/319/284 284/307/284
f 297/320/285 286/308/285 285/319/285
f 298/321/286 287/309/286 286/308/286
f 299/322/287 288/310/287 287/309/287
f 300/323/288 277/298/288 288/310/288
f 301/324/6 290/325/6 289/326/6
f 302/327/5 291/328/5 290/325/5
f 303/329/4 292/330/4 291/328/4
f 304/331/3 293/332/3 292/330/3
f 305/333/2 294/334/2 293/332/2
f 294/334/1 307/335/1 295/336/1
f 307/337/12 296/338/12 295/339/12
f 308/340/11 297/341/11 296/338/11
f 309/342/10 298/343/10 297/341/10
f 298/343/9 311/344/9 299/345/9
f 299/345/8 312/346/8 300/347/8
f 300/347/7 301/324/7 289/326/7
f 301/324/18 314/348/18 302/327/18
f 302/327/17 315/349/17 303/329/17
f 303/329/16 316/350/16 304/331/16
f 304/331/15 317/351/15 305/333/15
f 317/351/14 306/352/14 305/333/14
f 318/353/13 307/335/13 306/352/13
f 307/337/24 320/354/24 308/340/24
f 320/354/23 309/342/23 308/340/23
f 321/355/22 310/356/22 309/342/22
f 322/357/21 311/344/21 310/356/21
f 323/358/20 312/346/20 311/344/20
f 324/359/19 301/324/19 312/346/19
f 325/360/30 314/348/30 313/361/30
f 326/362/29 315/349/29 314/348/29
f 327/363/28 316/350/28 315/349/28
f 328/364/27 317/351/27 316/350/27
f 329/365/26 318/353/26 317/351/26
f 330/366/25 319/367/25 318/353/25
f 319/368/36 332/369/36 320/354/36
f 332/369/35 321/355/35 320/354/35
f 333/370/34 322/357/34 321/355/34
f 334/371/33 323/358/33 322/357/33
f 323/358/32 336/372/32 324/359/32
f 324/359/31 325/360/31 313/361/31
f 337/373/42 326/362/42 325/360/42
f 338/374/41 327/363/41 326/362/41
f 339/375/40 328/364/40 327/363/40
f 340/376/39 329/365/39 328/364/39
f 341/377/38 330/366/38 329/365/38
f 342/378/37 331/379/37 330/366/37
f 343/380/48 332/369/48 331/381/48
f 332/369/47 345/382/47 333/370/47
f 345/382/46 334/371/46 333/370/46
f 346/383/45 335/384/45 334/371/45
f 335/384/44 348/385/44 336/372/44
f 336/372/43 337/373/43 325/360/43
f 349/386/54 338/374/54 337/373/54
f 350/387/53 339/375/53 338/374/53
f 351/388/52 340/376/52 339/375/52
f 340/376/51 353/389/51 341/377/51
f 353/389/50 342/378/50 341/377/50
f 354/390/49 343/391/49 342/378/49
f 343/380/60 356/392/60 344/393/60
f 356/392/59 345/382/59 344/393/59
f 357/394/58 346/383/58 345/382/58
f 346/383/57 359/395/57 347/396/57
f 347/396/56 360/397/56 348/385/56
f 360/397/55 337/373/55 348/385/55
f 349/386/66 362/398/66 350/387/66
f 350/387/65 363/399/65 351/388/65
f 363/399/64 352/400/64 351/388/64
f 364/401/63 353/389/63 352/400/63
f 365/402/62 354/390/62 353/389/62
f 366/403/61 355/404/61 354/390/61
f 355/405/72 368/406/72 356/392/72
f 356/392/71 369/407/71 357/394/71
f 357/394/70 370/408/70 358/409/70
f 370/408/69 359/395/69 358/409/69
f 359/395/68 372/410/68 360/397/68
f 360/397/67 361/411/67 349/386/67
f 373/412/78 362/398/78 361/411/78
f 374/413/77 363/399/77 362/398/77
f 363/399/76 376/414/76 364/401/76
f 376/414/75 365/402/75 364/401/75
f 365/402/74 378/415/74 366/403/74
f 378/415/73 367/416/73 366/403/73
f 367/417/84 380/418/84 368/406/84
f 380/418/83 369/407/83 368/406/83
f 381/419/82 370/408/82 369/407/82
f 382/420/81 371/421/81 370/408/81
f 383/422/80 372/410/80 371/421/80
f 372/410/79 373/412/79 361/411/79
f 385/423/90 374/413/90 373/412/90
f 374/413/89 387/424/89 375/425/89
f 375/425/88 388/426/88 376/414/88
f 376/414/87 389/427/87 377/428/87
f 389/427/86 378/415/86 377/428/86
f 390/429/85 379/430/85 378/415/85
f 391/431/96 380/418/96 379/432/96
f 392/433/95 381/419/95 380/418/95
f 393/434/94 382/420/94 381/419/94
f 382/420/93 395/435/93 383/422/93
f 395/435/92 384/436/92 383/422/92
f 396/437/91 373/412/91 384/436/91
f 397/438/102 386/439/102 385/423/102
f 386/439/101 399/440/101 387/424/101
f 399/440/100 388/426/100 387/424/100
f 400/441/99 389/427/99 388/426/99
f 401/442/98 390/429/98 389/427/98
f 402/443/97 391/444/97 390/429/97
f 391/431/108 404/445/108 392/433/108
f 404/445/107 393/434/107 392/433/107
f 405/446/106 394/447/106 393/434/106
f 406/448/105 395/435/105 394/447/105
f 407/449/104 396/437/104 395/435/104
f 408/450/103 385/423/103 396/437/103
f 397/438/114 410/451/114 398/452/114
f 410/451/113 399/440/113 398/452/113
f 411/453/112 400/441/112 399/440/112
f 400/441/111 413/454/111 401/442/111
f 401/442/110 414/455/110 402/443/110
f 414/455/109 403/456/109 402/443/109
f 415/457/120 404/445/120 403/458/120
f 416/459/119 405/446/119 404/445/119
f 405/446/118 418/460/118 406/448/118
f 406/448/117 419/461/117 407/449/117
f 407/449/116 420/462/116 408/450/116
f 408/450/115 409/463/115 397/438/115
f 409/463/126 422/464/126 410/451/126
f 422/464/125 411/453/125 410/451/125
f 423/465/124 412/466/124 411/453/124
f 424/467/123 413/454/123 412/466/123
f 413/454/122 426/468/122 414/455/122
f 414/455/121 427/469/121 415/470/121
f 427/471/132 416/459/132 415/457/132
f 428/472/131 417/473/131 416/459/131
f 417/473/130 430/474/130 418/460/130
f 418/460/129 431/475/129 419/461/129
f 431/475/128 420/462/128 419/461/128
f 420/462/127 421/476/127 409/463/127
f 433/477/138 422/464/138 421/476/138
f 422/464/137 435/478/137 423/465/137
f 435/478/136 424/467/136 423/465/136
f 436/479/135 425/480/135 424/467/135
f 437/481/134 426/468/134 425/480/134
f 426/468/133 439/482/133 427/469/133
f 439/483/144 428/472/144 427/471/144
f 440/484/143 429/485/143 428/472/143
f 429/485/142 442/486/142 430/474/142
f 442/486/141 431/475/141 430/474/141
f 431/475/140 444/487/140 432/488/140
f 432/488/139 433/477/139 421/476/139
f 445/489/150 434/490/150 433/477/150
f 446/491/149 435/478/149 434/490/149
f 435/478/148 448/492/148 436/479/148
f 448/492/147 437/481/147 436/479/147
f 449/493/146 438/494/146 437/481/146
f 450/495/145 439/482/145 438/494/145
f 451/496/156 440/484/156 439/483/156
f 440/484/155 453/497/155 441/498/155
f 441/498/154 454/499/154 442/486/154
f 454/499/153 443/500/153 442/486/153
f 455/501/152 444/487/152 443/500/152
f 456/502/151 433/477/151 444/487/151
f 457/503/162 446/491/162 445/489/162
f 458/504/161 447/505/161 446/491/161
f 459/506/160 448/492/160 447/505/160
f 460/507/159 449/493/159 448/492/159
f 461/508/158 450/495/158 449/493/158
f 462/509/157 451/510/157 450/495/157
f 463/511/168 452/512/168 451/496/168
f 464/513/167 453/497/167 452/512/167
f 453/497/166 466/514/166 454/499/166
f 466/514/165 455/501/165 454/499/165
f 467/515/164 456/502/164 455/501/164
f 456/502/163 457/503/163 445/489/163
f 469/516/174 458/504/174 457/503/174
f 470/517/173 459/506/173 458/504/173
f 471/518/172 460/507/172 459/506/172
f 472/519/171 461/508/171 460/507/171
f 473/520/170 462/509/170 461/508/170
f 474/521/169 463/522/169 462/509/169
f 475/523/180 464/513/180 463/511/180
f 476/524/179 465/525/179 464/513/179
f 477/526/178 466/514/178 465/525/178
f 466/514/177 479/527/177 467/515/177
f 467/515/176 480/528/176 468/529/176
f 468/529/175 469/516/175 457/503/175
f 469/516/186 482/530/186 470/517/186
f 470/517/185 483/531/185 471/518/185
f 483/531/184 472/519/184 471/518/184
f 472/519/183 485/532/183 473/520/183
f 473/520/182 486/533/182 474/521/182
f 474/521/181 487/534/181 475/535/181
f 487/536/192 476/524/192 475/523/192
f 488/537/191 477/526/191 476/524/191
f 477/526/190 490/538/190 478/539/190
f 478/539/189 491/540/189 479/527/189
f 491/540/188 480/528/188 479/527/188
f 492/541/187 469/516/187 480/528/187
f 481/542/198 494/543/198 482/530/198
f 482/530/197 495/544/197 483/531/197
f 495/544/196 484/545/196 483/531/196
f 496/546/195 485/532/195 484/545/195
f 497/547/194 486/533/194 485/532/194
f 498/548/193 487/534/193 486/533/193
f 487/536/204 500/549/204 488/537/204
f 500/549/203 489/550/203 488/537/203
f 489/550/202 502/551/202 490/538/202
f 502/551/201 491/540/201 490/538/201
f 503/552/200 492/541/200 491/540/200
f 504/553/199 481/542/199 492/541/199
f 493/554/210 506/555/210 494/543/210
f 506/555/209 495/544/209 494/543/209
f 495/544/208 508/556/208 496/546/208
f 496/546/207 509/557/207 497/547/207
f 509/557/206 498/548/206 497/547/206
f 498/548/205 511/558/205 499/559/205
f 499/560/216 512/561/216 500/549/216
f 512/561/215 501/562/215 500/549/215
f 513/563/214 502/551/214 501/562/214
f 514/564/213 503/552/213 502/551/213
f 503/552/212 516/565/212 504/553/212
f 516/565/211 493/554/211 504/553/211
f 517/566/222 506/555/222 505/567/222
f 518/568/221 507/569/221 506/555/221
f 519/570/220 508/556/220 507/569/220
f 520/571/219 509/557/219 508/556/219
f 521/572/218 510/573/218 509/557/218
f 510/573/217 523/574/217 511/558/217
f 523/575/228 512/561/228 511/576/228
f 512/561/227 525/577/227 513/563/227
f 513/563/226 526/578/226 514/564/226
f 514/564/225 527/579/225 515/580/225
f 515/580/224 528/581/224 516/565/224
f 528/581/223 505/567/223 516/565/223
f 517/566/234 530/582/234 518/568/234
f 530/582/233 519/570/233 518/568/233
f 531/583/232 520/571/232 519/570/232
f 520/571/231 533/584/231 521/572/231
f 533/584/230 522/585/230 521/572/230
f 534/586/229 523/574/229 522/585/229
f 535/587/240 524/588/240 523/575/240
f 524/588/239 537/589/239 525/577/239
f 537/589/238 526/578/238 525/577/238
f 538/590/237 527/579/237 526/578/237
f 539/591/236 528/581/236 527/579/236
f 540/592/235 517/566/235 528/581/235
f 541/593/246 530/582/246 529/594/246
f 530/582/245 543/595/245 531/583/245
f 531/583/244 544/596/244 532/597/244
f 532/597/243 545/598/243 533/584/243
f 545/598/242 534/586/242 533/584/242
f 534/586/241 547/599/241 535/600/241
f 547/601/252 536/602/252 535/587/252
f 548/603/251 537/589/251 536/602/251
f 549/604/250 538/590/250 537/589/250
f 550/605/249 539/591/249 538/590/249
f 551/606/248 540/592/248 539/591/248
f 540/592/247 541/593/247 529/594/247
f 553/607/258 542/608/258 541/593/258
f 554/609/257 543/595/257 542/608/257
f 555/610/256 544/596/256 543/595/256
f 556/611/255 545/598/255 544/596/255
f 557/612/254 546/613/254 545/598/254
f 558/614/253 547/599/253 546/613/253
f 559/615/264 548/603/264 547/601/264
f 548/603/263 561/616/263 549/604/263
f 549/604/262 562/617/262 550/605/262
f 550/605/261 563/618/261 551/606/261
f 563/618/260 552/619/260 551/606/260
f 552/619/259 553/607/259 541/593/259
f 565/620/270 554/609/270 553/607/270
f 554/609/269 567/621/269 555/610/269
f 555/610/268 568/622/268 556/611/268
f 568/622/267 557/612/267 556/611/267
f 569/623/266 558/614/266 557/612/266
f 558/614/265 571/624/265 559/625/265
f 571/626/276 560/627/276 559/615/276
f 572/628/275 561/616/275 560/627/275
f 573/629/274 562/617/274 561/616/274
f 574/630/273 563/618/273 562/617/273
f 575/631/272 564/632/272 563/618/272
f 564/632/271 565/620/271 553/607/271
f 1/3/282 566/633/282 565/620/282
f 2/2/281 567/621/281 566/633/281
f 3/5/280 568/622/280 567/621/280
f 568/622/279 5/8/279 569/623/279
f 569/623/278 6/10/278 570/634/278
f 570/634/277 7/12/277 571/624/277
f 7/15/288 572/628/288 571/626/288
f 8/14/287 573/629/287 572/628/287
f 9/17/286 574/630/286 573/629/286
f 574/630/285 11/20/285 575/631/285
f 11/20/284 576/635/284 575/631/284
f 12/22/283 565/620/283 576/635/283
f 13/1/1 14/4/1 2/2/1
f 14/4/2 15/26/2 3/5/2
f 3/5/3 15/26/3 16/6/3
f 16/6/4 17/9/4 5/8/4
f 17/9/5 18/11/5 6/10/5
f 18/11/6 19/31/6 7/12/6
f 19/13/7 20/33/7 8/14/7
f 8/14/8 20/33/8 21/16/8
f 21/16/9 22/19/9 10/18/9
f 22/19/10 23/21/10 11/20/10
f 23/21/11 24/23/11 12/22/11
f 24/23/12 13/1/12 1/3/12
f 25/24/13 26/25/13 14/4/13
f 26/25/14 27/27/14 15/26/14
f 27/27/15 28/28/15 16/6/15
f 28/28/16 29/29/16 17/9/16
f 29/29/17 30/30/17 18/11/17
f 30/30/18 31/41/18 19/31/18
f 31/32/19 32/43/19 20/33/19
f 20/33/20 32/43/20 33/34/20
f 33/34/21 34/35/21 22/19/21
f 34/35/22 35/47/22 23/21/22
f 23/21/23 35/47/23 36/36/23
f 24/23/24 36/36/24 25/24/24
f 37/37/25 38/38/25 26/25/25
f 38/38/26 39/49/26 27/27/26
f 27/27/27 39/49/27 40/39/27
f 40/39/28 41/52/28 29/29/28
f 29/29/29 41/52/29 42/40/29
f 42/40/30 43/55/30 31/41/30
f 43/42/31 44/44/31 32/43/31
f 44/44/32 45/45/32 33/34/32
f 45/45/33 46/59/33 34/35/33
f 34/35/34 46/59/34 47/46/34
f 47/46/35 48/62/35 36/36/35
f 36/36/36 48/62/36 37/37/36
f 37/37/37 49/64/37 50/48/37
f 50/48/38 51/50/38 39/49/38
f 51/50/39 52/51/39 40/39/39
f 52/51/40 53/53/40 41/52/40
f 53/53/41 54/54/41 42/40/41
f 54/54/42 55/68/42 43/55/42
f 55/56/43 56/57/43 44/44/43
f 56/57/44 57/70/44 45/45/44
f 45/45/45 57/70/45 58/58/45
f 46/59/46 58/58/46 59/60/46
f 47/46/47 59/60/47 60/61/47
f 60/61/48 49/64/48 37/37/48
f 61/63/49 62/65/49 50/48/49
f 62/65/50 63/75/50 51/50/50
f 51/50/51 63/75/51 64/66/51
f 64/66/52 65/78/52 53/53/52
f 53/53/53 65/78/53 66/67/53
f 66/67/54 67/80/54 55/68/54
f 55/56/55 67/82/55 68/69/55
f 68/69/56 69/84/56 57/70/56
f 57/70/57 69/84/57 70/71/57
f 70/71/58 71/72/58 59/60/58
f 71/72/59 72/88/59 60/61/59
f 60/61/60 72/88/60 61/63/60
f 73/73/61 74/74/61 62/65/61
f 74/74/62 75/76/62 63/75/62
f 75/76/63 76/77/63 64/66/63
f 76/77/64 77/92/64 65/78/64
f 65/78/65 77/92/65 78/79/65
f 78/79/66 79/95/66 67/80/66
f 79/81/67 80/83/67 68/69/67
f 80/83/68 81/98/68 69/84/68
f 69/84/69 81/98/69 82/85/69
f 70/71/70 82/85/70 83/86/70
f 71/72/71 83/86/71 84/87/71
f 84/87/72 73/73/72 61/63/72
f 85/89/73 86/90/73 74/74/73
f 86/90/74 87/104/74 75/76/74
f 75/76/75 87/104/75 88/91/75
f 88/91/76 89/93/76 77/92/76
f 89/93/77 90/94/77 78/79/77
f 90/94/78 91/108/78 79/95/78
f 79/81/79 91/110/79 92/96/79
f 80/83/80 92/96/80 93/97/80
f 81/98/81 93/97/81 94/99/81
f 82/85/82 94/99/82 95/100/82
f 95/100/83 96/101/83 84/87/83
f 96/101/84 85/89/84 73/73/84
f 97/102/85 98/116/85 86/90/85
f 86/90/86 98/116/86 99/103/86
f 99/103/87 100/119/87 88/91/87
f 88/91/88 100/119/88 101/105/88
f 89/93/89 101/105/89 102/106/89
f 90/94/90 102/106/90 103/107/90
f 103/109/91 104/111/91 92/96/91
f 104/111/92 105/112/92 93/97/92
f 105/112/93 106/113/93 94/99/93
f 106/113/94 107/114/94 95/100/94
f 107/114/95 108/126/95 96/101/95
f 96/101/96 108/126/96 97/102/96
f 109/115/97 110/117/97 98/116/97
f 110/117/98 111/129/98 99/103/98
f 99/103/99 111/129/99 112/118/99
f 100/119/100 112/118/100 113/120/100
f 113/120/101 114/121/101 102/106/101
f 114/121/102 115/132/102 103/107/102
f 103/109/103 115/133/103 116/122/103
f 104/111/104 116/122/104 117/123/104
f 105/112/105 117/123/105 118/124/105
f 118/124/106 119/137/106 107/114/106
f 107/114/107 119/137/107 120/125/107
f 108/126/108 120/125/108 109/115/108
f 109/115/109 121/139/109 122/127/109
f 110/117/110 122/127/110 123/128/110
f 123/128/111 124/142/111 112/118/111
f 112/118/112 124/142/112 125/130/112
f 113/120/113 125/130/113 126/131/113
f 126/131/114 127/145/114 115/132/114
f 115/133/115 127/147/115 128/134/115
f 128/134/116 129/135/116 117/123/116
f 129/135/117 130/150/117 118/124/117
f 118/124/118 130/150/118 131/136/118
f 131/136/119 132/138/119 120/125/119
f 132/138/120 121/139/120 109/115/120
f 121/139/121 133/154/121 134/140/121
f 134/140/122 135/156/122 123/128/122
f 123/128/123 135/156/123 136/141/123
f 136/141/124 137/143/124 125/130/124
f 137/143/125 138/144/125 126/131/125
f 138/144/126 139/160/126 127/145/126
f 139/146/127 140/162/127 128/134/127
f 128/134/128 140/162/128 141/148/128
f 129/135/129 141/148/129 142/149/129
f 142/149/130 143/151/130 131/136/130
f 143/151/131 144/152/131 132/138/131
f 144/152/132 133/154/132 121/139/132
f 145/153/133 146/168/133 134/140/133
f 134/140/134 146/168/134 147/155/134
f 135/156/135 147/155/135 148/157/135
f 136/141/136 148/157/136 149/158/136
f 137/143/137 149/158/137 150/159/137
f 150/159/138 151/173/138 139/160/138
f 151/161/139 152/163/139 140/162/139
f 152/163/140 153/164/140 141/148/140
f 153/164/141 154/176/141 142/149/141
f 142/149/142 154/176/142 155/165/142
f 155/165/143 156/166/143 144/152/143
f 156/166/144 145/153/144 133/154/144
f 157/167/145 158/169/145 146/168/145
f 158/169/146 159/170/146 147/155/146
f 159/170/147 160/171/147 148/157/147
f 160/171/148 161/182/148 149/158/148
f 149/158/149 161/182/149 162/172/149
f 162/172/150 163/185/150 151/173/150
f 151/161/151 163/186/151 164/174/151
f 152/163/152 164/174/152 165/175/152
f 165/175/153 166/177/153 154/176/153
f 166/177/154 167/189/154 155/165/154
f 155/165/155 167/189/155 168/178/155
f 168/178/156 157/167/156 145/153/156
f 157/167/157 169/192/157 170/179/157
f 158/169/158 170/179/158 171/180/158
f 171/180/159 172/181/159 160/171/159
f 172/181/160 173/183/160 161/182/160
f 173/183/161 174/184/161 162/172/161
f 174/184/162 175/197/162 163/185/162
f 163/186/163 175/198/163 176/187/163
f 176/187/164 177/201/164 165/175/164
f 165/175/165 177/201/165 178/188/165
f 178/188/166 179/190/166 167/189/166
f 179/190/167 180/191/167 168/178/167
f 180/191/168 169/192/168 157/167/168
f 169/192/169 181/206/169 182/193/169
f 182/193/170 183/208/170 171/180/170
f 171/180/171 183/208/171 184/194/171
f 184/194/172 185/195/172 173/183/172
f 185/195/173 186/196/173 174/184/173
f 186/196/174 187/212/174 175/197/174
f 175/198/175 187/214/175 188/199/175
f 176/187/176 188/199/176 189/200/176
f 177/201/177 189/200/177 190/202/177
f 190/202/178 191/203/178 179/190/178
f 191/203/179 192/204/179 180/191/179
f 192/204/180 181/206/180 169/192/180
f 193/205/181 194/207/181 182/193/181
f 194/207/182 195/220/182 183/208/182
f 183/208/183 195/220/183 196/209/183
f 196/209/184 197/210/184 185/195/184
f 197/210/185 198/223/185 186/196/185
f 186/196/186 198/223/186 199/211/186
f 199/213/187 200/226/187 188/199/187
f 188/199/188 200/226/188 201/215/188
f 201/215/189 202/216/189 190/202/189
f 202/216/190 203/229/190 191/203/190
f 191/203/191 203/229/191 204/217/191
f 204/217/192 193/205/192 181/206/192
f 205/218/193 206/219/193 194/207/193
f 206/219/194 207/232/194 195/220/194
f 195/220/195 207/232/195 208/221/195
f 208/221/196 209/222/196 197/210/196
f 209/222/197 210/224/197 198/223/197
f 210/224/198 211/236/198 199/211/198
f 211/225/199 212/238/199 200/226/199
f 200/226/200 212/238/200 213/227/200
f 213/227/201 214/228/201 202/216/201
f 214/228/202 215/241/202 203/229/202
f 203/229/203 215/241/203 216/230/203
f 204/217/204 216/230/204 205/218/204
f 205/218/205 217/244/205 218/231/205
f 218/231/206 219/247/206 207/232/206
f 207/232/207 219/247/207 220/233/207
f 220/233/208 221/234/208 209/222/208
f 221/234/209 222/235/209 210/224/209
f 222/235/210 223/250/210 211/236/210
f 211/225/211 223/252/211 224/237/211
f 212/238/212 224/237/212 225/239/212
f 225/239/213 226/240/213 214/228/213
f 226/240/214 227/242/214 215/241/214
f 227/242/215 228/243/215 216/230/215
f 228/243/216 217/244/216 205/218/216
f 217/244/217 229/257/217 230/245/217
f 218/231/218 230/245/218 231/246/218
f 231/246/219 232/260/219 220/233/219
f 220/233/220 232/260/220 233/248/220
f 221/234/221 233/248/221 234/249/221
f 234/249/222 235/263/222 223/250/222
f 235/251/223 236/253/223 224/237/223
f 236/253/224 237/254/224 225/239/224
f 237/254/225 238/255/225 226/240/225
f 238/255/226 239/268/226 227/242/226
f 227/242/227 239/268/227 240/256/227
f 240/256/228 229/257/228 217/244/228
f 229/257/229 241/270/229 242/258/229
f 242/258/230 243/272/230 231/246/230
f 231/246/231 243/272/231 244/259/231
f 232/260/232 244/259/232 245/261/232
f 233/248/233 245/261/233 246/262/233
f 246/262/234 247/276/234 235/263/234
f 247/264/235 248/265/235 236/253/235
f 248/265/236 249/266/236 237/254/236
f 249/266/237 250/280/237 238/255/237
f 238/255/238 250/280/238 251/267/238
f 239/268/239 251/267/239 252/269/239
f 252/269/240 241/270/240 229/257/240
f 241/270/241 253/283/241 254/271/241
f 254/271/242 255/273/242 243/272/242
f 255/273/243 256/274/243 244/259/243
f 256/274/244 257/287/244 245/261/244
f 245/261/245 257/287/245 258/275/245
f 258/275/246 259/290/246 247/276/246
f 247/264/247 259/292/247 260/277/247
f 248/265/248 260/277/248 261/278/248
f 249/266/249 261/278/249 262/279/249
f 262/279/250 263/281/250 251/267/250
f 263/281/251 264/282/251 252/269/251
f 264/282/252 253/283/252 241/270/252
f 253/283/253 265/299/253 266/284/253
f 254/271/254 266/284/254 267/285/254
f 267/285/255 268/302/255 256/274/255
f 256/274/256 268/302/256 269/286/256
f 257/287/257 269/286/257 270/288/257
f 258/275/258 270/288/258 271/289/258
f 271/291/259 272/293/259 260/277/259
f 272/293/260 273/294/260 261/278/260
f 273/294/261 274/295/261 262/279/261
f 274/295/262 275/296/262 263/281/262
f 275/296/263 276/297/263 264/282/263
f 276/297/264 265/299/264 253/283/264
f 277/298/265 278/300/265 266/284/265
f 278/300/266 279/301/266 267/285/266
f 279/301/267 280/303/267 268/302/267
f 280/303/268 281/304/268 269/286/268
f 281/304/269 282/315/269 270/288/269
f 270/288/270 282/315/270 283/305/270
f 283/306/271 284/307/271 272/293/271
f 284/307/272 285/319/272 273/294/272
f 273/294/273 285/319/273 286/308/273
f 274/295/274 286/308/274 287/309/274
f 275/296/275 287/309/275 288/310/275
f 276/297/276 288/310/276 277/298/276
f 277/298/277 289/636/277 290/311/277
f 278/300/278 290/311/278 291/312/278
f 279/301/279 291/312/279 292/313/279
f 292/313/280 293/314/280 281/304/280
f 293/314/281 294/316/281 282/315/281
f 294/316/282 295/637/282 283/305/282
f 295/317/283 296/318/283 284/307/283
f 296/318/284 297/320/284 285/319/284
f 297/320/285 298/321/285 286/308/285
f 298/321/286 299/322/286 287/309/286
f 299/322/287 300/323/287 288/310/287
f 300/323/288 289/636/288 277/298/288
f 301/324/6 302/327/6 290/325/6
f 302/327/5 303/329/5 291/328/5
f 303/329/4 304/331/4 292/330/4
f 304/331/3 305/333/3 293/332/3
f 305/333/2 306/352/2 294/334/2
f 294/334/1 306/352/1 307/335/1
f 307/337/12 308/340/12 296/338/12
f 308/340/11 309/342/11 297/341/11
f 309/342/10 310/356/10 298/343/10
f 298/343/9 310/356/9 311/344/9
f 299/345/8 311/344/8 312/346/8
f 300/347/7 312/346/7 301/324/7
f 301/324/18 313/361/18 314/348/18
f 302/327/17 314/348/17 315/349/17
f 303/329/16 315/349/16 316/350/16
f 304/331/15 316/350/15 317/351/15
f 317/351/14 318/353/14 306/352/14
f 318/353/13 319/367/13 307/335/13
f 307/337/24 319/368/24 320/354/24
f 320/354/23 321/355/23 309/342/23
f 321/355/22 322/357/22 310/356/22
f 322/357/21 323/358/21 311/344/21
f 323/358/20 324/359/20 312/346/20
f 324/359/19 313/361/19 301/324/19
f 325/360/30 326/362/30 314/348/30
f 326/362/29 327/363/29 315/349/29
f 327/363/28 328/364/28 316/350/28
f 328/364/27 329/365/27 317/351/27
f 329/365/26 330/366/26 318/353/26
f 330/366/25 331/379/25 319/367/25
f 319/368/36 331/381/36 332/369/36
f 332/369/35 333/370/35 321/355/35
f 333/370/34 334/371/34 322/357/34
f 334/371/33 335/384/33 323/358/33
f 323/358/32 335/384/32 336/372/32
f 324/359/31 336/372/31 325/360/31
f 337/373/42 338/374/42 326/362/42
f 338/374/41 339/375/41 327/363/41
f 339/375/40 340/376/40 328/364/40
f 340/376/39 341/377/39 329/365/39
f 341/377/38 342/378/38 330/366/38
f 342/378/37 343/391/37 331/379/37
f 343/380/48 344/393/48 332/369/48
f 332/369/47 344/393/47 345/382/47
f 345/382/46 346/383/46 334/371/46
f 346/383/45 347/396/45 335/384/45
f 335/384/44 347/396/44 348/385/44
f 336/372/43 348/385/43 337/373/43
f 349/386/54 350/387/54 338/374/54
f 350/387/53 351/388/53 339/375/53
f 351/388/52 352/400/52 340/376/52
f 340/376/51 352/400/51 353/389/51
f 353/389/50 354/390/50 342/378/50
f 354/390/49 355/404/49 343/391/49
f 343/380/60 355/405/60 356/392/60
f 356/392/59 357/394/59 345/382/59
f 357/394/58 358/409/58 346/383/58
f 346/383/57 358/409/57 359/395/57
f 347/396/56 359/395/56 360/397/56
f 360/397/55 349/386/55 337/373/55
f 349/386/66 361/411/66 362/398/66
f 350/387/65 362/398/65 363/399/65
f 363/399/64 364/401/64 352/400/64
f 364/401/63 365/402/63 353/389/63
f 365/402/62 366/403/62 354/390/62
f 366/403/61 367/416/61 355/404/61
f 355/405/72 367/417/72 368/406/72
f 356/392/71 368/406/71 369/407/71
f 357/394/70 369/407/70 370/408/70
f 370/408/69 371/421/69 359/395/69
f 359/395/68 371/421/68 372/410/68
f 360/397/67 372/410/67 361/411/67
f 373/412/78 374/413/78 362/398/78
f 374/413/77 375/425/77 363/399/77
f 363/399/76 375/425/76 376/414/76
f 376/414/75 377/428/75 365/402/75
f 365/402/74 377/428/74 378/415/74
f 378/415/73 379/430/73 367/416/73
f 367/417/84 379/432/84 380/418/84
f 380/418/83 381/419/83 369/407/83
f 381/419/82 382/420/82 370/408/82
f 382/420/81 383/422/81 371/421/81
f 383/422/80 384/436/80 372/410/80
f 372/410/79 384/436/79 373/412/79
f 385/423/90 386/439/90 374/413/90
f 374/413/89 386/439/89 387/424/89
f 375/425/88 387/424/88 388/426/88
f 376/414/87 388/426/87 389/427/87
f 389/427/86 390/429/86 378/415/86
f 390/429/85 391/444/85 379/430/85
f 391/431/96 392/433/96 380/418/96
f 392/433/95 393/434/95 381/419/95
f 393/434/94 394/447/94 382/420/94
f 382/420/93 394/447/93 395/435/93
f 395/435/92 396/437/92 384/436/92
f 396/437/91 385/423/91 373/412/91
f 397/438/102 398/452/102 386/439/102
f 386/439/101 398/452/101 399/440/101
f 399/440/100 400/441/100 388/426/100
f 400/441/99 401/442/99 389/427/99
f 401/442/98 402/443/98 390/429/98
f 402/443/97 403/456/97 391/444/97
f 391/431/108 403/458/108 404/445/108
f 404/445/107 405/446/107 393/434/107
f 405/446/106 406/448/106 394/447/106
f 406/448/105 407/449/105 395/435/105
f 407/449/104 408/450/104 396/437/104
f 408/450/103 397/438/103 385/423/103
f 397/438/114 409/463/114 410/451/114
f 410/451/113 411/453/113 399/440/113
f 411/453/112 412/466/112 400/441/112
f 400/441/111 412/466/111 413/454/111
f 401/442/110 413/454/110 414/455/110
f 414/455/109 415/470/109 403/456/109
f 415/457/120 416/459/120 404/445/120
f 416/459/119 417/473/119 405/446/119
f 405/446/118 417/473/118 418/460/118
f 406/448/117 418/460/117 419/461/117
f 407/449/116 419/461/116 420/462/116
f 408/450/115 420/462/115 409/463/115
f 409/463/126 421/476/126 422/464/126
f 422/464/125 423/465/125 411/453/125
f 423/465/124 424/467/124 412/466/124
f 424/467/123 425/480/123 413/454/123
f 413/454/122 425/480/122 426/468/122
f 414/455/121 426/468/121 427/469/121
f 427/471/132 428/472/132 416/459/132
f 428/472/131 429/485/131 417/473/131
f 417/473/130 429/485/130 430/474/130
f 418/460/129 430/474/129 431/475/129
f 431/475/128 432/488/128 420/462/128
f 420/462/127 432/488/127 421/476/127
f 433/477/138 434/490/138 422/464/138
f 422/464/137 434/490/137 435/478/137
f 435/478/136 436/479/136 424/467/136
f 436/479/135 437/481/135 425/480/135
f 437/481/134 438/494/134 426/468/134
f 426/468/133 438/494/133 439/482/133
f 439/483/144 440/484/144 428/472/144
f 440/484/143 441/498/143 429/485/143
f 429/485/142 441/498/142 442/486/142
f 442/486/141 443/500/141 431/475/141
f 431/475/140 443/500/140 444/487/140
f 432/488/139 444/487/139 433/477/139
f 445/489/150 446/491/150 434/490/150
f 446/491/149 447/505/149 435/478/149
f 435/478/148 447/505/148 448/492/148
f 448/492/147 449/493/147 437/481/147
f 449/493/146 450/495/146 438/494/146
f 450/495/145 451/510/145 439/482/145
f 451/496/156 452/512/156 440/484/156
f 440/484/155 452/512/155 453/497/155
f 441/498/154 453/497/154 454/499/154
f 454/499/153 455/501/153 443/500/153
f 455/501/152 456/502/152 444/487/152
f 456/502/151 445/489/151 433/477/151
f 457/503/162 458/504/162 446/491/162
f 458/504/161 459/506/161 447/505/161
f 459/506/160 460/507/160 448/492/160
f 460/507/159 461/508/159 449/493/159
f 461/508/158 462/509/158 450/495/158
f 462/509/157 463/522/157 451/510/157
f 463/511/168 464/513/168 452/512/168
f 464/513/167 465/525/167 453/497/167
f 453/497/166 465/525/166 466/514/166
f 466/514/165 467/515/165 455/501/165
f 467/515/164 468/529/164 456/502/164
f 456/502/163 468/529/163 457/503/163
f 469/516/174 470/517/174 458/504/174
f 470/517/173 471/518/173 459/506/173
f 471/518/172 472/519/172 460/507/172
f 472/519/171 473/520/171 461/508/171
f 473/520/170 474/521/170 462/509/170
f 474/521/169 475/535/169 463/522/169
f 475/523/180 476/524/180 464/513/180
f 476/524/179 477/526/179 465/525/179
f 477/526/178 478/539/178 466/514/178
f 466/514/177 478/539/177 479/527/177
f 467/515/176 479/527/176 480/528/176
f 468/529/175 480/528/175 469/516/175
f 469/516/186 481/542/186 482/530/186
f 470/517/185 482/530/185 483/531/185
f 483/531/184 484/545/184 472/519/184
f 472/519/183 484/545/183 485/532/183
f 473/520/182 485/532/182 486/533/182
f 474/521/181 486/533/181 487/534/181
f 487/536/192 488/537/192 476/524/192
f 488/537/191 489/550/191 477/526/191
f 477/526/190 489/550/190 490/538/190
f 478/539/189 490/538/189 491/540/189
f 491/540/188 492/541/188 480/528/188
f 492/541/187 481/542/187 469/516/187
f 481/542/198 493/554/198 494/543/198
f 482/530/197 494/543/197 495/544/197
f 495/544/196 496/546/196 484/545/196
f 496/546/195 497/547/195 485/532/195
f 497/547/194 498/548/194 486/533/194
f 498/548/193 499/559/193 487/534/193
f 487/536/204 499/560/204 500/549/204
f 500/549/203 501/562/203 489/550/203
f 489/550/202 501/562/202 502/551/202
f 502/551/201 503/552/201 491/540/201
f 503/552/200 504/553/200 492/541/200
f 504/553/199 493/554/199 481/542/199
f 493/554/210 505/567/210 506/555/210
f 506/555/209 507/569/209 495/544/209
f 495/544/208 507/569/208 508/556/208
f 496/546/207 508/556/207 509/557/207
f 509/557/206 510/573/206 498/548/206
f 498/548/205 510/573/205 511/558/205
f 499/560/216 511/576/216 512/561/216
f 512/561/215 513/563/215 501/562/215
f 513/563/214 514/564/214 502/551/214
f 514/564/213 515/580/213 503/552/213
f 503/552/212 515/580/212 516/565/212
f 516/565/211 505/567/211 493/554/211
f 517/566/222 518/568/222 506/555/222
f 518/568/221 519/570/221 507/569/221
f 519/570/220 520/571/220 508/556/220
f 520/571/219 521/572/219 509/557/219
f 521/572/218 522/585/218 510/573/218
f 510/573/217 522/585/217 523/574/217
f 523/575/228 524/588/228 512/561/228
f 512/561/227 524/588/227 525/577/227
f 513/563/226 525/577/226 526/578/226
f 514/564/225 526/578/225 527/579/225
f 515/580/224 527/579/224 528/581/224
f 528/581/223 517/566/223 505/567/223
f 517/566/234 529/594/234 530/582/234
f 530/582/233 531/583/233 519/570/233
f 531/583/232 532/597/232 520/571/232
f 520/571/231 532/597/231 533/584/231
f 533/584/230 534/586/230 522/585/230
f 534/586/229 535/600/229 523/574/229
f 535/587/240 536/602/240 524/588/240
f 524/588/239 536/602/239 537/589/239
f 537/589/238 538/590/238 526/578/238
f 538/590/237 539/591/237 527/579/237
f 539/591/236 540/592/236 528/581/236
f 540/592/235 529/594/235 517/566/235
f 541/593/246 542/608/246 530/582/246
f 530/582/245 542/608/245 543/595/245
f 531/583/244 543/595/244 544/596/244
f 532/597/243 544/596/243 545/598/243
f 545/598/242 546/613/242 534/586/242
f 534/586/241 546/613/241 547/599/241
f 547/601/252 548/603/252 536/602/252
f 548/603/251 549/604/251 537/589/251
f 549/604/250 550/605/250 538/590/250
f 550/605/249 551/606/249 539/591/249
f 551/606/248 552/619/248 540/592/248
f 540/592/247 552/619/247 541/593/247
f 553/607/258 554/609/258 542/608/258
f 554/609/257 555/610/257 543/595/257
f 555/610/256 556/611/256 544/596/256
f 556/611/255 557/612/255 545/598/255
f 557/612/254 558/614/254 546/613/254
f 558/614/253 559/625/253 547/599/253
f 559/615/264 560/627/264 548/603/264
f 548/603/263 560/627/263 561/616/263
f 549/604/262 561/616/262 562/617/262
f 550/605/261 562/617/261 563/618/261
f 563/618/260 564/632/260 552/619/260
f 552/619/259 564/632/259 553/607/259
f 565/620/270 566/633/270 554/609/270
f 554/609/269 566/633/269 567/621/269
f 555/610/268 567/621/268 568/622/268
f 568/622/267 569/623/267 557/612/267
f 569/623/266 570/634/266 558/614/266
f 558/614/265 570/634/265 571/624/265
f 571/626/276 572/628/276 560/627/276
f 572/628/275 573/629/275 561/616/275
f 573/629/274 574/630/274 562/617/274
f 574/630/273 575/631/273 563/618/273
f 575/631/272 576/635/272 564/632/272
f 564/632/271 576/635/271 565/620/271
f 1/3/282 2/2/282 566/633/282
f 2/2/281 3/5/281 567/621/281
f 3/5/280 4/7/280 568/622/280
f 568/622/279 4/7/279 5/8/279
f 569/623/278 5/8/278 6/10/278
f 570/634/277 6/10/277 7/12/277
f 7/15/288 8/14/288 572/628/288
f 8/14/287 9/17/287 573/629/287
f 9/17/286 10/18/286 574/630/286
f 574/630/285 10/18/285 11/20/285
f 11/20/284 12/22/284 576/635/284
f 12/22/283 1/3/283 565/620/283
